<svg width="236" height="37" viewBox="0 0 236 37" fill="none" xmlns="http://www.w3.org/2000/svg">
<path d="M72.5979 20.5908C71.2983 20.5908 70.3588 19.8078 69.7795 18.242L68.0179 13.7794H67.783L66.7261 19.8861C66.6008 20.6064 66.3033 21.1779 65.8336 21.6007C65.3795 22.0235 64.7766 22.2349 64.025 22.2349C63.2734 22.2349 62.6706 22.0235 62.2165 21.6007C61.7781 21.1623 61.5589 20.5908 61.5589 19.8861C61.5589 19.6043 61.5745 19.2911 61.6058 18.9466C61.6528 18.5865 61.6998 18.3046 61.7468 18.1011L61.7937 17.7723L63.4379 7.90755C63.5788 7.04635 63.9389 6.36521 64.5183 5.86415C65.0976 5.34742 65.8727 5.08906 66.8435 5.08906C68.4407 5.08906 69.615 6.02856 70.3666 7.90755L72.4805 13.4036H72.7154L74.8292 7.90755C75.5495 6.02856 76.7239 5.08906 78.3524 5.08906C79.3232 5.08906 80.0983 5.34742 80.6776 5.86415C81.257 6.36521 81.6171 7.04635 81.758 7.90755L83.4022 17.7723C83.5587 18.5552 83.637 19.2598 83.637 19.8861C83.637 20.5908 83.41 21.1623 82.9559 21.6007C82.5175 22.0235 81.9224 22.2349 81.1708 22.2349C80.4193 22.2349 79.8086 22.0235 79.3388 21.6007C78.8847 21.1779 78.5951 20.6064 78.4698 19.8861L77.4129 13.7794H77.178L75.4164 18.242C74.8214 19.8078 73.8819 20.5908 72.5979 20.5908ZM91.164 14.2492H93.9825L92.6907 10.726H92.4558L91.164 14.2492ZM90.1071 18.4769L89.5199 19.8861C88.8622 21.452 87.9227 22.2349 86.7014 22.2349C85.9498 22.2349 85.3313 22.0078 84.8459 21.5537C84.3605 21.0996 84.1178 20.5438 84.1178 19.8861C84.1178 19.6826 84.1648 19.4086 84.2587 19.0641C84.3527 18.7039 84.4466 18.3986 84.5406 18.1481L84.705 17.7723L88.463 7.90755C88.8388 6.96806 89.3398 6.26343 89.9662 5.79368C90.5925 5.32394 91.4615 5.08906 92.5733 5.08906C93.685 5.08906 94.554 5.32394 95.1804 5.79368C95.8223 6.26343 96.3234 6.96806 96.6836 7.90755L100.442 17.7723C100.833 18.7118 101.029 19.4164 101.029 19.8861C101.029 20.5438 100.786 21.0996 100.301 21.5537C99.8152 22.0078 99.1967 22.2349 98.4451 22.2349C97.2238 22.2349 96.2843 21.452 95.6266 19.8861L95.0394 18.4769H90.1071ZM101.503 15.4235V12.1353C101.503 10.0997 102.223 8.41645 103.664 7.08549C105.104 5.75454 107.007 5.08906 109.371 5.08906C111.282 5.08906 112.832 5.51967 114.022 6.38087C115.228 7.24208 115.83 8.14243 115.83 9.08192C115.83 9.73957 115.611 10.2563 115.173 10.6321C114.75 11.0079 114.108 11.1958 113.247 11.1958C112.605 11.1958 111.939 10.9218 111.25 10.3737C110.577 9.82569 109.951 9.55167 109.371 9.55167C108.604 9.55167 107.978 9.79437 107.492 10.2798C107.023 10.7495 106.788 11.368 106.788 12.1353V15.4235C106.788 16.1908 107.023 16.8171 107.492 17.3025C107.978 17.7723 108.604 18.0071 109.371 18.0071C110.045 18.0071 110.741 17.7331 111.462 17.1851C112.198 16.637 112.871 16.363 113.482 16.363C114.343 16.363 114.985 16.5509 115.408 16.9267C115.846 17.3025 116.065 17.8192 116.065 18.4769C116.065 19.4164 115.447 20.3167 114.21 21.1779C112.988 22.0391 111.376 22.4697 109.371 22.4697C107.007 22.4697 105.104 21.8043 103.664 20.4733C102.223 19.1424 101.503 17.4591 101.503 15.4235ZM121.58 10.2563H118.997C118.182 10.2563 117.548 10.0449 117.094 9.62213C116.64 9.19936 116.413 8.62783 116.413 7.90755C116.413 7.18727 116.64 6.61574 117.094 6.19297C117.548 5.7702 118.182 5.55881 118.997 5.55881H129.331C130.145 5.55881 130.779 5.7702 131.234 6.19297C131.688 6.61574 131.915 7.18727 131.915 7.90755C131.915 8.62783 131.688 9.19936 131.234 9.62213C130.779 10.0449 130.145 10.2563 129.331 10.2563H126.747V19.8861C126.747 20.6064 126.52 21.1779 126.066 21.6007C125.612 22.0235 124.978 22.2349 124.164 22.2349C123.35 22.2349 122.715 22.0235 122.261 21.6007C121.807 21.1779 121.58 20.6064 121.58 19.8861V10.2563ZM144.954 10.2563H138.612V11.6655H143.075C143.764 11.6655 144.328 11.8691 144.766 12.2762C145.204 12.6833 145.424 13.1844 145.424 13.7794C145.424 14.3744 145.204 14.8755 144.766 15.2826C144.328 15.6897 143.764 15.8933 143.075 15.8933H138.612V17.3025H145.189C146.003 17.3025 146.637 17.5139 147.091 17.9367C147.545 18.3595 147.772 18.931 147.772 19.6513C147.772 20.3715 147.545 20.9431 147.091 21.3658C146.637 21.7886 146.003 22 145.189 22H136.029C135.214 22 134.58 21.7886 134.126 21.3658C133.672 20.9431 133.445 20.3715 133.445 19.6513V7.90755C133.445 7.18727 133.672 6.61574 134.126 6.19297C134.58 5.7702 135.214 5.55881 136.029 5.55881H144.954C145.768 5.55881 146.402 5.7702 146.856 6.19297C147.31 6.61574 147.537 7.18727 147.537 7.90755C147.537 8.62783 147.31 9.19936 146.856 9.62213C146.402 10.0449 145.768 10.2563 144.954 10.2563ZM154.691 12.8399H156.805C157.369 12.8399 157.823 12.6912 158.167 12.3936C158.512 12.0961 158.684 11.736 158.684 11.3132C158.684 10.8905 158.512 10.5303 158.167 10.2328C157.823 9.9353 157.369 9.78655 156.805 9.78655H154.691V12.8399ZM156.805 17.0676H154.691V19.8861C154.691 20.6064 154.464 21.1779 154.01 21.6007C153.556 22.0235 152.922 22.2349 152.107 22.2349C151.293 22.2349 150.659 22.0235 150.205 21.6007C149.751 21.1779 149.524 20.6064 149.524 19.8861V7.90755C149.524 7.18727 149.751 6.61574 150.205 6.19297C150.659 5.7702 151.293 5.55881 152.107 5.55881H156.805C159.075 5.55881 160.853 6.10685 162.137 7.20293C163.436 8.28335 164.086 9.65345 164.086 11.3132C164.086 12.973 163.436 14.3509 162.137 15.447C160.853 16.5274 159.075 17.0676 156.805 17.0676ZM172.197 17.7723L175.721 13.5445L172.667 9.78655C172.041 9.00363 171.728 8.29901 171.728 7.67268C171.728 6.96806 171.947 6.40436 172.385 5.98158C172.839 5.54315 173.442 5.32394 174.194 5.32394C174.617 5.32394 175.024 5.42572 175.415 5.62927C175.807 5.81717 176.088 6.0129 176.261 6.21646L176.543 6.49831L178.891 9.55167H179.126L181.475 6.49831C181.538 6.40436 181.632 6.29475 181.757 6.16948C181.898 6.04422 182.172 5.87198 182.579 5.65276C182.986 5.43354 183.401 5.32394 183.824 5.32394C184.575 5.32394 185.17 5.54315 185.609 5.98158C186.063 6.40436 186.29 6.96806 186.29 7.67268C186.29 7.95453 186.212 8.27552 186.055 8.63566C185.898 8.98014 185.742 9.25416 185.585 9.45772L185.35 9.78655L182.297 13.5445L185.82 17.7723C186.446 18.5552 186.76 19.2598 186.76 19.8861C186.76 20.5908 186.533 21.1623 186.078 21.6007C185.64 22.0235 185.045 22.2349 184.293 22.2349C183.871 22.2349 183.464 22.1409 183.072 21.953C182.681 21.7495 182.399 21.5459 182.227 21.3424L181.945 21.0605L179.126 17.6548H178.891L176.073 21.0605C176.01 21.1545 175.908 21.2641 175.768 21.3893C175.642 21.5146 175.376 21.6868 174.969 21.9061C174.562 22.1253 174.147 22.2349 173.724 22.2349C172.972 22.2349 172.37 22.0235 171.916 21.6007C171.477 21.1623 171.258 20.5908 171.258 19.8861C171.258 19.6043 171.336 19.2911 171.493 18.9466C171.649 18.5865 171.806 18.3046 171.963 18.1011L172.197 17.7723ZM193.921 14.2492H196.74L195.448 10.726H195.213L193.921 14.2492ZM192.865 18.4769L192.277 19.8861C191.62 21.452 190.68 22.2349 189.459 22.2349C188.707 22.2349 188.089 22.0078 187.603 21.5537C187.118 21.0996 186.875 20.5438 186.875 19.8861C186.875 19.6826 186.922 19.4086 187.016 19.0641C187.11 18.7039 187.204 18.3986 187.298 18.1481L187.462 17.7723L191.22 7.90755C191.596 6.96806 192.097 6.26343 192.724 5.79368C193.35 5.32394 194.219 5.08906 195.331 5.08906C196.442 5.08906 197.311 5.32394 197.938 5.79368C198.58 6.26343 199.081 6.96806 199.441 7.90755L203.199 17.7723C203.59 18.7118 203.786 19.4164 203.786 19.8861C203.786 20.5438 203.543 21.0996 203.058 21.5537C202.573 22.0078 201.954 22.2349 201.203 22.2349C199.981 22.2349 199.042 21.452 198.384 19.8861L197.797 18.4769H192.865ZM208.947 17.5374L204.367 9.78655C203.975 9.16021 203.78 8.45559 203.78 7.67268C203.78 7.01503 204.022 6.45916 204.508 6.00507C204.993 5.55098 205.612 5.32394 206.363 5.32394C207.459 5.32394 208.399 6.10685 209.182 7.67268L211.765 12.605H212L213.997 7.67268C214.701 6.10685 215.641 5.32394 216.815 5.32394C217.567 5.32394 218.185 5.55098 218.671 6.00507C219.156 6.45916 219.399 7.01503 219.399 7.67268C219.399 8.01716 219.344 8.36947 219.234 8.72961C219.14 9.07409 219.047 9.33246 218.953 9.5047L218.812 9.78655L215.054 17.5374C214.38 18.9623 213.457 20.1445 212.282 21.084C211.123 22.0078 209.777 22.4697 208.242 22.4697C207.052 22.4697 206.128 22.2036 205.471 21.6712C204.813 21.1231 204.484 20.4498 204.484 19.6513C204.484 19.0562 204.688 18.5552 205.095 18.1481C205.502 17.7409 206.003 17.5374 206.598 17.5374C206.943 17.5374 207.272 17.6157 207.585 17.7723C207.898 17.9288 208.117 18.0071 208.242 18.0071C208.383 18.0071 208.509 17.968 208.618 17.8897C208.743 17.8114 208.83 17.7331 208.876 17.6548L208.947 17.5374ZM219.881 15.4235V12.1353C219.881 10.0997 220.601 8.41645 222.041 7.08549C223.482 5.75454 225.384 5.08906 227.749 5.08906C229.659 5.08906 231.209 5.51967 232.399 6.38087C233.605 7.24208 234.208 8.14243 234.208 9.08192C234.208 9.73957 233.989 10.2563 233.55 10.6321C233.127 11.0079 232.485 11.1958 231.624 11.1958C230.982 11.1958 230.317 10.9218 229.628 10.3737C228.954 9.82569 228.328 9.55167 227.749 9.55167C226.982 9.55167 226.355 9.79437 225.87 10.2798C225.4 10.7495 225.165 11.368 225.165 12.1353V15.4235C225.165 16.1908 225.4 16.8171 225.87 17.3025C226.355 17.7723 226.982 18.0071 227.749 18.0071C228.422 18.0071 229.119 17.7331 229.839 17.1851C230.575 16.637 231.248 16.363 231.859 16.363C232.72 16.363 233.362 16.5509 233.785 16.9267C234.224 17.3025 234.443 17.8192 234.443 18.4769C234.443 19.4164 233.824 20.3167 232.587 21.1779C231.366 22.0391 229.753 22.4697 227.749 22.4697C225.384 22.4697 223.482 21.8043 222.041 20.4733C220.601 19.1424 219.881 17.4591 219.881 15.4235Z" fill="white"/>
<path d="M61.8401 28.0143H66.27V33.9209H65.2912V28.9172H62.8105V33.9209H61.8401V28.0143ZM69.9585 28.0143C70.3353 28.0143 70.6757 28.0987 70.9794 28.2675C71.2888 28.4362 71.5307 28.6697 71.7051 28.9678C71.8795 29.266 71.9667 29.5979 71.9667 29.9635C71.9667 30.5204 71.7754 30.9845 71.3929 31.3558C71.0104 31.727 70.5322 31.9127 69.9585 31.9127H68.7434V33.9209H67.773V28.0143H69.9585ZM69.9078 30.9929C70.0653 30.9929 70.2088 30.9676 70.3382 30.917C70.4732 30.8664 70.5885 30.796 70.6841 30.706C70.7797 30.616 70.8529 30.5063 70.9035 30.377C70.9598 30.2476 70.9879 30.1098 70.9879 29.9635C70.9879 29.7666 70.9401 29.5922 70.8444 29.4403C70.7544 29.2828 70.6279 29.1591 70.4647 29.0691C70.3016 28.9791 70.116 28.9341 69.9078 28.9341H68.7434V30.9929H69.9078ZM75.6982 34.0306C74.8038 34.0306 74.0613 33.7409 73.4706 33.1615C72.88 32.5765 72.5846 31.8452 72.5846 30.9676C72.5846 30.0901 72.88 29.3616 73.4706 28.7822C74.0613 28.1972 74.8038 27.9046 75.6982 27.9046C76.5927 27.9046 77.3352 28.1972 77.9259 28.7822C78.5165 29.3616 78.8118 30.0901 78.8118 30.9676C78.8118 31.5414 78.6768 32.0645 78.4068 32.5371C78.1424 33.004 77.7712 33.3696 77.293 33.634C76.8205 33.8984 76.2889 34.0306 75.6982 34.0306ZM74.1794 32.4949C74.5844 32.8999 75.0907 33.1024 75.6982 33.1024C76.3114 33.1024 76.8177 32.8999 77.2171 32.4949C77.6221 32.0842 77.8246 31.5751 77.8246 30.9676C77.8246 30.3601 77.6221 29.8538 77.2171 29.4488C76.8177 29.0381 76.3114 28.8328 75.6982 28.8328C75.0907 28.8328 74.5844 29.0381 74.1794 29.4488C73.7744 29.8538 73.5719 30.3601 73.5719 30.9676C73.5719 31.5751 73.7744 32.0842 74.1794 32.4949ZM86.2387 30.9592C86.2387 31.3473 86.174 31.7186 86.0446 32.073C85.9209 32.4274 85.738 32.7452 85.4961 33.0265C85.2599 33.3077 84.9589 33.5384 84.5933 33.7184C84.2276 33.8928 83.8226 33.994 83.3782 34.0222V34.925H82.4332V34.0222C81.9888 33.994 81.5837 33.8928 81.2181 33.7184C80.8525 33.5384 80.5487 33.3106 80.3068 33.0349C80.0705 32.7536 79.8877 32.4358 79.7583 32.0814C79.629 31.727 79.5643 31.3586 79.5643 30.9761C79.5643 30.6667 79.6036 30.3685 79.6824 30.0816C79.7612 29.7891 79.8821 29.5191 80.0452 29.2716C80.2084 29.0184 80.4024 28.7962 80.6274 28.605C80.8581 28.4081 81.1253 28.2506 81.4291 28.1325C81.7384 28.0087 82.0732 27.9356 82.4332 27.9131V27.1199H83.3782V27.9131C83.8226 27.9412 84.2276 28.0425 84.5933 28.2168C84.9589 28.3912 85.2599 28.6191 85.4961 28.9003C85.738 29.176 85.9209 29.491 86.0446 29.8454C86.174 30.1998 86.2387 30.571 86.2387 30.9592ZM83.3698 33.1024C83.9436 33.0518 84.402 32.824 84.7452 32.4189C85.0883 32.0083 85.2599 31.5245 85.2599 30.9676C85.2599 30.4163 85.0883 29.9382 84.7452 29.5332C84.402 29.1225 83.9436 28.8919 83.3698 28.8413V33.1024ZM80.5515 30.9676C80.5515 31.5189 80.7203 31.9999 81.0578 32.4105C81.4009 32.8212 81.8594 33.0518 82.4332 33.1024V28.8413C81.865 28.8919 81.4094 29.1225 81.0662 29.5332C80.7231 29.9382 80.5515 30.4163 80.5515 30.9676ZM88.3468 33.0012H90.9035V33.9209H87.3764V28.0143H90.8107V28.9256H88.3468V30.4613H90.5913V31.3558H88.3468V33.0012ZM94.6242 34.0222C93.7522 34.0222 93.0266 33.7353 92.4472 33.1615C91.8734 32.5821 91.5865 31.8508 91.5865 30.9676C91.5865 30.0844 91.8734 29.356 92.4472 28.7822C93.0266 28.2028 93.7522 27.9131 94.6242 27.9131C95.0854 27.9131 95.513 28.0031 95.9067 28.1831C96.3005 28.3631 96.6296 28.6191 96.894 28.9509C97.164 29.2828 97.3496 29.6682 97.4509 30.1069H96.4721C96.3314 29.7132 96.098 29.4066 95.7717 29.1872C95.4455 28.9622 95.0629 28.8497 94.6242 28.8497C94.0335 28.8497 93.5441 29.0494 93.156 29.4488C92.7678 29.8482 92.5737 30.3573 92.5737 30.9761C92.5737 31.5892 92.7678 32.0955 93.156 32.4949C93.5441 32.8887 94.0335 33.0855 94.6242 33.0855C95.0742 33.0855 95.4651 32.9674 95.797 32.7311C96.1289 32.4893 96.3596 32.1602 96.4889 31.7439H97.4762C97.3243 32.4358 96.9896 32.9899 96.4721 33.4062C95.9545 33.8168 95.3386 34.0222 94.6242 34.0222ZM101.159 34.0222C100.287 34.0222 99.561 33.7353 98.9816 33.1615C98.4079 32.5821 98.121 31.8508 98.121 30.9676C98.121 30.0844 98.4079 29.356 98.9816 28.7822C99.561 28.2028 100.287 27.9131 101.159 27.9131C101.62 27.9131 102.047 28.0031 102.441 28.1831C102.835 28.3631 103.164 28.6191 103.428 28.9509C103.698 29.2828 103.884 29.6682 103.985 30.1069H103.007C102.866 29.7132 102.632 29.4066 102.306 29.1872C101.98 28.9622 101.597 28.8497 101.159 28.8497C100.568 28.8497 100.079 29.0494 99.6904 29.4488C99.3023 29.8482 99.1082 30.3573 99.1082 30.9761C99.1082 31.5892 99.3023 32.0955 99.6904 32.4949C100.079 32.8887 100.568 33.0855 101.159 33.0855C101.609 33.0855 102 32.9674 102.332 32.7311C102.663 32.4893 102.894 32.1602 103.023 31.7439H104.011C103.859 32.4358 103.524 32.9899 103.007 33.4062C102.489 33.8168 101.873 34.0222 101.159 34.0222ZM109.068 28.0143H109.769V33.9209H108.807V29.8285L105.71 33.9209H105.035V28.0143H106.006V32.0645L109.068 28.0143ZM114.015 34.0306C113.121 34.0306 112.378 33.7409 111.787 33.1615C111.197 32.5765 110.901 31.8452 110.901 30.9676C110.901 30.0901 111.197 29.3616 111.787 28.7822C112.378 28.1972 113.121 27.9046 114.015 27.9046C114.91 27.9046 115.652 28.1972 116.243 28.7822C116.833 29.3616 117.129 30.0901 117.129 30.9676C117.129 31.5414 116.994 32.0645 116.724 32.5371C116.459 33.004 116.088 33.3696 115.61 33.634C115.137 33.8984 114.606 34.0306 114.015 34.0306ZM112.496 32.4949C112.901 32.8999 113.408 33.1024 114.015 33.1024C114.628 33.1024 115.135 32.8999 115.534 32.4949C115.939 32.0842 116.141 31.5751 116.141 30.9676C116.141 30.3601 115.939 29.8538 115.534 29.4488C115.135 29.0381 114.628 28.8328 114.015 28.8328C113.408 28.8328 112.901 29.0381 112.496 29.4488C112.091 29.8538 111.889 30.3601 111.889 30.9676C111.889 31.5751 112.091 32.0842 112.496 32.4949ZM121.923 28.0143H122.893V33.9209H121.923V31.3473H119.223V33.9209H118.252V28.0143H119.223V30.4276H121.923V28.0143ZM128.433 33.9209L127.918 32.6383H125.286L124.779 33.9209H123.75L126.13 28.0143H127.041L129.479 33.9209H128.433ZM126.594 29.28L125.623 31.7692H127.581L126.594 29.28ZM131.37 28.0143H135.142V33.9209H134.171V28.9172H132.239L131.961 31.9295C131.831 33.2627 131.196 33.9293 130.054 33.9293H129.775V32.9758H130.054C130.605 32.9758 130.912 32.6383 130.973 31.9633L131.37 28.0143ZM138.864 29.9804C139.46 29.9804 139.949 30.166 140.332 30.5373C140.714 30.9086 140.906 31.3811 140.906 31.9549C140.906 32.523 140.714 32.9927 140.332 33.364C139.949 33.7353 139.46 33.9209 138.864 33.9209H136.644V28.0143H137.615V29.9804H138.864ZM138.796 33.0096C139.122 33.0096 139.39 32.9112 139.598 32.7143C139.812 32.5118 139.918 32.2558 139.918 31.9464C139.918 31.637 139.812 31.3839 139.598 31.187C139.39 30.9845 139.122 30.8832 138.796 30.8832H137.615V33.0096H138.796ZM145.58 28.0143H146.551V33.9209H145.58V31.3473H142.88V33.9209H141.91V28.0143H142.88V30.4276H145.58V28.0143ZM150.783 34.0306C149.888 34.0306 149.146 33.7409 148.555 33.1615C147.965 32.5765 147.669 31.8452 147.669 30.9676C147.669 30.0901 147.965 29.3616 148.555 28.7822C149.146 28.1972 149.888 27.9046 150.783 27.9046C151.677 27.9046 152.42 28.1972 153.01 28.7822C153.601 29.3616 153.896 30.0901 153.896 30.9676C153.896 31.5414 153.761 32.0645 153.491 32.5371C153.227 33.004 152.856 33.3696 152.378 33.634C151.905 33.8984 151.373 34.0306 150.783 34.0306ZM149.264 32.4949C149.669 32.8999 150.175 33.1024 150.783 33.1024C151.396 33.1024 151.902 32.8999 152.302 32.4949C152.707 32.0842 152.909 31.5751 152.909 30.9676C152.909 30.3601 152.707 29.8538 152.302 29.4488C151.902 29.0381 151.396 28.8328 150.783 28.8328C150.175 28.8328 149.669 29.0381 149.264 29.4488C148.859 29.8538 148.656 30.3601 148.656 30.9676C148.656 31.5751 148.859 32.0842 149.264 32.4949ZM155.99 33.0012H158.547V33.9209H155.02V28.0143H158.454V28.9256H155.99V30.4613H158.235V31.3558H155.99V33.0012ZM166.535 33.018H167.125V35.0685H166.231V33.9209H162.189V35.0685H161.295V33.018H161.759C161.832 32.9674 161.894 32.914 161.944 32.8577C161.995 32.8015 162.046 32.7227 162.096 32.6215C162.147 32.5202 162.189 32.4133 162.223 32.3008C162.257 32.1883 162.29 32.0336 162.324 31.8367C162.364 31.6342 162.397 31.4289 162.425 31.2208C162.454 31.007 162.484 30.7285 162.518 30.3854C162.558 30.0366 162.591 29.6879 162.619 29.3391C162.653 28.9847 162.693 28.5431 162.738 28.0143H166.535V33.018ZM163.607 28.9172C163.505 30.2898 163.401 31.2601 163.295 31.8283C163.188 32.3908 163.024 32.7874 162.805 33.018H165.556V28.9172H163.607ZM170.897 34.0306C170.003 34.0306 169.26 33.7409 168.669 33.1615C168.079 32.5765 167.784 31.8452 167.784 30.9676C167.784 30.0901 168.079 29.3616 168.669 28.7822C169.26 28.1972 170.003 27.9046 170.897 27.9046C171.792 27.9046 172.534 28.1972 173.125 28.7822C173.715 29.3616 174.011 30.0901 174.011 30.9676C174.011 31.5414 173.876 32.0645 173.606 32.5371C173.341 33.004 172.97 33.3696 172.492 33.634C172.019 33.8984 171.488 34.0306 170.897 34.0306ZM169.378 32.4949C169.783 32.8999 170.29 33.1024 170.897 33.1024C171.51 33.1024 172.017 32.8999 172.416 32.4949C172.821 32.0842 173.023 31.5751 173.023 30.9676C173.023 30.3601 172.821 29.8538 172.416 29.4488C172.017 29.0381 171.51 28.8328 170.897 28.8328C170.29 28.8328 169.783 29.0381 169.378 29.4488C168.973 29.8538 168.771 30.3601 168.771 30.9676C168.771 31.5751 168.973 32.0842 169.378 32.4949ZM182.122 33.9209H181.135L180.443 29.6429L178.528 33.8281H178.283L176.359 29.6429L175.667 33.9209H174.68L175.642 28.0143H176.595L178.401 32.0308L180.207 28.0143H181.169L182.122 33.9209ZM185.902 34.0306C185.008 34.0306 184.266 33.7409 183.675 33.1615C183.084 32.5765 182.789 31.8452 182.789 30.9676C182.789 30.0901 183.084 29.3616 183.675 28.7822C184.266 28.1972 185.008 27.9046 185.902 27.9046C186.797 27.9046 187.539 28.1972 188.13 28.7822C188.721 29.3616 189.016 30.0901 189.016 30.9676C189.016 31.5414 188.881 32.0645 188.611 32.5371C188.347 33.004 187.975 33.3696 187.497 33.634C187.025 33.8984 186.493 34.0306 185.902 34.0306ZM184.384 32.4949C184.789 32.8999 185.295 33.1024 185.902 33.1024C186.516 33.1024 187.022 32.8999 187.421 32.4949C187.826 32.0842 188.029 31.5751 188.029 30.9676C188.029 30.3601 187.826 29.8538 187.421 29.4488C187.022 29.0381 186.516 28.8328 185.902 28.8328C185.295 28.8328 184.789 29.0381 184.384 29.4488C183.979 29.8538 183.776 30.3601 183.776 30.9676C183.776 31.5751 183.979 32.0842 184.384 32.4949ZM192.798 34.0222C191.926 34.0222 191.2 33.7353 190.621 33.1615C190.047 32.5821 189.76 31.8508 189.76 30.9676C189.76 30.0844 190.047 29.356 190.621 28.7822C191.2 28.2028 191.926 27.9131 192.798 27.9131C193.259 27.9131 193.687 28.0031 194.08 28.1831C194.474 28.3631 194.803 28.6191 195.068 28.9509C195.338 29.2828 195.523 29.6682 195.624 30.1069H194.646C194.505 29.7132 194.272 29.4066 193.945 29.1872C193.619 28.9622 193.237 28.8497 192.798 28.8497C192.207 28.8497 191.718 29.0494 191.33 29.4488C190.941 29.8482 190.747 30.3573 190.747 30.9761C190.747 31.5892 190.941 32.0955 191.33 32.4949C191.718 32.8887 192.207 33.0855 192.798 33.0855C193.248 33.0855 193.639 32.9674 193.971 32.7311C194.303 32.4893 194.533 32.1602 194.663 31.7439H195.65C195.498 32.4358 195.163 32.9899 194.646 33.4062C194.128 33.8168 193.512 34.0222 192.798 34.0222ZM200.448 28.0143V28.9172H198.71V33.9209H197.748V28.9172H196.01V28.0143H200.448ZM203.565 28.0143C203.942 28.0143 204.282 28.0987 204.586 28.2675C204.895 28.4362 205.137 28.6697 205.311 28.9678C205.486 29.266 205.573 29.5979 205.573 29.9635C205.573 30.5204 205.382 30.9845 204.999 31.3558C204.617 31.727 204.139 31.9127 203.565 31.9127H202.35V33.9209H201.379V28.0143H203.565ZM203.514 30.9929C203.672 30.9929 203.815 30.9676 203.945 30.917C204.08 30.8664 204.195 30.796 204.29 30.706C204.386 30.616 204.459 30.5063 204.51 30.377C204.566 30.2476 204.594 30.1098 204.594 29.9635C204.594 29.7666 204.546 29.5922 204.451 29.4403C204.361 29.2828 204.234 29.1591 204.071 29.0691C203.908 28.9791 203.722 28.9341 203.514 28.9341H202.35V30.9929H203.514ZM209.305 34.0306C208.41 34.0306 207.668 33.7409 207.077 33.1615C206.486 32.5765 206.191 31.8452 206.191 30.9676C206.191 30.0901 206.486 29.3616 207.077 28.7822C207.668 28.1972 208.41 27.9046 209.305 27.9046C210.199 27.9046 210.942 28.1972 211.532 28.7822C212.123 29.3616 212.418 30.0901 212.418 30.9676C212.418 31.5414 212.283 32.0645 212.013 32.5371C211.749 33.004 211.378 33.3696 210.899 33.634C210.427 33.8984 209.895 34.0306 209.305 34.0306ZM207.786 32.4949C208.191 32.8999 208.697 33.1024 209.305 33.1024C209.918 33.1024 210.424 32.8999 210.823 32.4949C211.228 32.0842 211.431 31.5751 211.431 30.9676C211.431 30.3601 211.228 29.8538 210.823 29.4488C210.424 29.0381 209.918 28.8328 209.305 28.8328C208.697 28.8328 208.191 29.0381 207.786 29.4488C207.381 29.8538 207.178 30.3601 207.178 30.9676C207.178 31.5751 207.381 32.0842 207.786 32.4949ZM214.512 33.0012H217.069V33.9209H213.542V28.0143H216.976V28.9256H214.512V30.4613H216.757V31.3558H214.512V33.0012ZM221.901 28.0143H222.871V33.9209H221.901V31.3473H219.201V33.9209H218.231V28.0143H219.201V30.4276H221.901V28.0143ZM228.403 28.0143H229.103V33.9209H228.141V29.8285L225.045 33.9209H224.37V28.0143H225.34V32.0645L228.403 28.0143ZM231.586 33.0012H234.143V33.9209H230.616V28.0143H234.05V28.9256H231.586V30.4613H233.83V31.3558H231.586V33.0012Z" fill="white"/>
<path d="M24.495 28.208L39.7425 12.9604L54.99 28.208" stroke="white" stroke-width="6.86139" stroke-linecap="round" stroke-linejoin="round"/>
<path d="M3.91089 28.2078L22.9703 9.14844L42.0297 28.2078" stroke="white" stroke-width="6.86139" stroke-linecap="round" stroke-linejoin="round"/>
</svg>
