<svg width="308" height="48" viewBox="0 0 308 48" fill="none" xmlns="http://www.w3.org/2000/svg">
<path d="M95.096 27.1515C93.3913 27.1515 92.159 26.1246 91.399 24.0707L89.0884 18.2171H88.7803L87.394 26.2273C87.2296 27.172 86.8394 27.9217 86.2232 28.4763C85.6276 29.0308 84.8369 29.3081 83.851 29.3081C82.8652 29.3081 82.0744 29.0308 81.4788 28.4763C80.9037 27.9012 80.6162 27.1515 80.6162 26.2273C80.6162 25.8576 80.6367 25.4468 80.6778 24.9949C80.7394 24.5225 80.801 24.1528 80.8626 23.8858L80.9242 23.4545L83.0808 10.5151C83.2657 9.38547 83.7381 8.49203 84.498 7.83479C85.2579 7.15701 86.2746 6.81812 87.548 6.81812C89.643 6.81812 91.1834 8.05045 92.1692 10.5151L94.942 17.7242H95.25L98.0228 10.5151C98.9676 8.05045 100.508 6.81812 102.644 6.81812C103.917 6.81812 104.934 7.15701 105.694 7.83479C106.454 8.49203 106.926 9.38547 107.111 10.5151L109.268 23.4545C109.473 24.4815 109.576 25.4057 109.576 26.2273C109.576 27.1515 109.278 27.9012 108.682 28.4763C108.107 29.0308 107.327 29.3081 106.341 29.3081C105.355 29.3081 104.554 29.0308 103.938 28.4763C103.342 27.9217 102.962 27.172 102.798 26.2273L101.412 18.2171H101.104L98.793 24.0707C98.0125 26.1246 96.7802 27.1515 95.096 27.1515ZM119.449 18.8333H123.146L121.451 14.2121H121.143L119.449 18.8333ZM118.063 24.3788L117.292 26.2273C116.43 28.2811 115.197 29.3081 113.595 29.3081C112.609 29.3081 111.798 29.0103 111.161 28.4146C110.525 27.819 110.206 27.0899 110.206 26.2273C110.206 25.9603 110.268 25.6008 110.391 25.149C110.515 24.6766 110.638 24.2761 110.761 23.9475L110.977 23.4545L115.906 10.5151C116.399 9.28278 117.056 8.35853 117.878 7.74237C118.699 7.1262 119.839 6.81812 121.297 6.81812C122.756 6.81812 123.896 7.1262 124.717 7.74237C125.559 8.35853 126.216 9.28278 126.689 10.5151L131.618 23.4545C132.132 24.6869 132.388 25.6111 132.388 26.2273C132.388 27.0899 132.07 27.819 131.433 28.4146C130.797 29.0103 129.985 29.3081 128.999 29.3081C127.397 29.3081 126.165 28.2811 125.302 26.2273L124.532 24.3788H118.063ZM133.01 20.3737V16.0606C133.01 13.3905 133.955 11.1826 135.845 9.43682C137.734 7.69102 140.23 6.81812 143.331 6.81812C145.837 6.81812 147.87 7.38294 149.431 8.51257C151.013 9.6422 151.803 10.8232 151.803 12.0555C151.803 12.9181 151.516 13.5959 150.941 14.0888C150.386 14.5818 149.544 14.8282 148.415 14.8282C147.572 14.8282 146.7 14.4688 145.796 13.75C144.913 13.0311 144.091 12.6717 143.331 12.6717C142.325 12.6717 141.503 12.99 140.867 13.6267C140.25 14.2429 139.942 15.0542 139.942 16.0606V20.3737C139.942 21.3801 140.25 22.2017 140.867 22.8384C141.503 23.4545 142.325 23.7626 143.331 23.7626C144.214 23.7626 145.128 23.4032 146.073 22.6843C147.038 21.9655 147.922 21.606 148.723 21.606C149.852 21.606 150.694 21.8525 151.249 22.3454C151.824 22.8384 152.112 23.5161 152.112 24.3788C152.112 25.6111 151.3 26.7921 149.678 27.9217C148.076 29.0513 145.96 29.6162 143.331 29.6162C140.23 29.6162 137.734 28.7433 135.845 26.9975C133.955 25.2517 133.01 23.0438 133.01 20.3737ZM159.345 13.5959H155.957C154.889 13.5959 154.057 13.3186 153.461 12.7641C152.865 12.2096 152.568 11.4599 152.568 10.5151C152.568 9.57032 152.865 8.82065 153.461 8.26611C154.057 7.71156 154.889 7.43428 155.957 7.43428H169.512C170.58 7.43428 171.412 7.71156 172.008 8.26611C172.603 8.82065 172.901 9.57032 172.901 10.5151C172.901 11.4599 172.603 12.2096 172.008 12.7641C171.412 13.3186 170.58 13.5959 169.512 13.5959H166.123V26.2273C166.123 27.172 165.825 27.9217 165.23 28.4763C164.634 29.0308 163.802 29.3081 162.734 29.3081C161.666 29.3081 160.835 29.0308 160.239 28.4763C159.643 27.9217 159.345 27.172 159.345 26.2273V13.5959ZM190.004 13.5959H181.686V15.4444H187.54C188.443 15.4444 189.183 15.7114 189.758 16.2454C190.333 16.7794 190.621 17.4367 190.621 18.2171C190.621 18.9976 190.333 19.6549 189.758 20.1889C189.183 20.7229 188.443 20.9899 187.54 20.9899H181.686V22.8384H190.312C191.38 22.8384 192.212 23.1156 192.808 23.6702C193.404 24.2247 193.701 24.9744 193.701 25.9192C193.701 26.864 193.404 27.6136 192.808 28.1682C192.212 28.7227 191.38 29 190.312 29H178.297C177.229 29 176.397 28.7227 175.802 28.1682C175.206 27.6136 174.908 26.864 174.908 25.9192V10.5151C174.908 9.57032 175.206 8.82065 175.802 8.26611C176.397 7.71156 177.229 7.43428 178.297 7.43428H190.004C191.072 7.43428 191.904 7.71156 192.5 8.26611C193.095 8.82065 193.393 9.57032 193.393 10.5151C193.393 11.4599 193.095 12.2096 192.5 12.7641C191.904 13.3186 191.072 13.5959 190.004 13.5959ZM202.777 16.9848H205.549C206.289 16.9848 206.884 16.7897 207.336 16.3995C207.788 16.0092 208.014 15.5368 208.014 14.9823C208.014 14.4277 207.788 13.9553 207.336 13.5651C206.884 13.1749 206.289 12.9798 205.549 12.9798H202.777V16.9848ZM205.549 22.5303H202.777V26.2273C202.777 27.172 202.479 27.9217 201.883 28.4763C201.287 29.0308 200.456 29.3081 199.388 29.3081C198.32 29.3081 197.488 29.0308 196.892 28.4763C196.297 27.9217 195.999 27.172 195.999 26.2273V10.5151C195.999 9.57032 196.297 8.82065 196.892 8.26611C197.488 7.71156 198.32 7.43428 199.388 7.43428H205.549C208.527 7.43428 210.859 8.15314 212.543 9.59086C214.247 11.008 215.1 12.8052 215.1 14.9823C215.1 17.1594 214.247 18.9668 212.543 20.4045C210.859 21.8217 208.527 22.5303 205.549 22.5303ZM225.739 23.4545L230.361 17.9091L226.356 12.9798C225.534 11.9528 225.123 11.0286 225.123 10.207C225.123 9.28278 225.411 8.54338 225.986 7.98883C226.582 7.41375 227.372 7.1262 228.358 7.1262C228.913 7.1262 229.447 7.25971 229.96 7.52671C230.474 7.77317 230.843 8.02991 231.069 8.29691L231.439 8.66661L234.52 12.6717H234.828L237.909 8.66661C237.991 8.54338 238.114 8.39961 238.278 8.2353C238.463 8.07099 238.823 7.84506 239.357 7.55752C239.891 7.26997 240.435 7.1262 240.989 7.1262C241.975 7.1262 242.756 7.41375 243.331 7.98883C243.927 8.54338 244.224 9.28278 244.224 10.207C244.224 10.5767 244.122 10.9978 243.916 11.4702C243.711 11.922 243.505 12.2814 243.3 12.5484L242.992 12.9798L238.987 17.9091L243.608 23.4545C244.43 24.4815 244.841 25.4057 244.841 26.2273C244.841 27.1515 244.543 27.9012 243.947 28.4763C243.372 29.0308 242.592 29.3081 241.606 29.3081C241.051 29.3081 240.517 29.1848 240.004 28.9384C239.49 28.6714 239.12 28.4044 238.895 28.1374L238.525 27.7677L234.828 23.3005H234.52L230.823 27.7677C230.741 27.8909 230.607 28.0347 230.422 28.199C230.258 28.3633 229.909 28.5892 229.375 28.8768C228.841 29.1643 228.297 29.3081 227.742 29.3081C226.756 29.3081 225.965 29.0308 225.37 28.4763C224.795 27.9012 224.507 27.1515 224.507 26.2273C224.507 25.8576 224.61 25.4468 224.815 24.9949C225.021 24.5225 225.226 24.1528 225.431 23.8858L225.739 23.4545ZM254.235 18.8333H257.932L256.237 14.2121H255.929L254.235 18.8333ZM252.848 24.3788L252.078 26.2273C251.215 28.2811 249.983 29.3081 248.381 29.3081C247.395 29.3081 246.584 29.0103 245.947 28.4146C245.311 27.819 244.992 27.0899 244.992 26.2273C244.992 25.9603 245.054 25.6008 245.177 25.149C245.3 24.6766 245.423 24.2761 245.547 23.9475L245.762 23.4545L250.692 10.5151C251.185 9.28278 251.842 8.35853 252.663 7.74237C253.485 7.1262 254.625 6.81812 256.083 6.81812C257.541 6.81812 258.681 7.1262 259.503 7.74237C260.345 8.35853 261.002 9.28278 261.475 10.5151L266.404 23.4545C266.917 24.6869 267.174 25.6111 267.174 26.2273C267.174 27.0899 266.856 27.819 266.219 28.4146C265.582 29.0103 264.771 29.3081 263.785 29.3081C262.183 29.3081 260.951 28.2811 260.088 26.2273L259.318 24.3788H252.848ZM273.943 23.1464L267.936 12.9798C267.422 12.1582 267.166 11.234 267.166 10.207C267.166 9.34439 267.484 8.61526 268.121 8.01964C268.757 7.42402 269.569 7.1262 270.555 7.1262C271.992 7.1262 273.225 8.15314 274.251 10.207L277.64 16.6767H277.948L280.567 10.207C281.491 8.15314 282.724 7.1262 284.264 7.1262C285.25 7.1262 286.061 7.42402 286.698 8.01964C287.335 8.61526 287.653 9.34439 287.653 10.207C287.653 10.6589 287.581 11.121 287.437 11.5934C287.314 12.0452 287.191 12.3841 287.068 12.6101L286.883 12.9798L281.954 23.1464C281.07 25.0155 279.859 26.5662 278.318 27.7985C276.798 29.0103 275.032 29.6162 273.019 29.6162C271.458 29.6162 270.246 29.267 269.384 28.5687C268.521 27.8498 268.09 26.9667 268.09 25.9192C268.09 25.1387 268.357 24.4815 268.891 23.9475C269.425 23.4135 270.082 23.1464 270.863 23.1464C271.314 23.1464 271.746 23.2491 272.157 23.4545C272.567 23.6599 272.855 23.7626 273.019 23.7626C273.204 23.7626 273.368 23.7113 273.512 23.6086C273.676 23.5059 273.789 23.4032 273.851 23.3005L273.943 23.1464ZM288.285 20.3737V16.0606C288.285 13.3905 289.23 11.1826 291.119 9.43682C293.009 7.69102 295.504 6.81812 298.606 6.81812C301.111 6.81812 303.145 7.38294 304.706 8.51257C306.287 9.6422 307.078 10.8232 307.078 12.0555C307.078 12.9181 306.79 13.5959 306.215 14.0888C305.661 14.5818 304.819 14.8282 303.689 14.8282C302.847 14.8282 301.974 14.4688 301.07 13.75C300.187 13.0311 299.366 12.6717 298.606 12.6717C297.599 12.6717 296.778 12.99 296.141 13.6267C295.525 14.2429 295.217 15.0542 295.217 16.0606V20.3737C295.217 21.3801 295.525 22.2017 296.141 22.8384C296.778 23.4545 297.599 23.7626 298.606 23.7626C299.489 23.7626 300.403 23.4032 301.348 22.6843C302.313 21.9655 303.196 21.606 303.997 21.606C305.127 21.606 305.969 21.8525 306.523 22.3454C307.098 22.8384 307.386 23.5161 307.386 24.3788C307.386 25.6111 306.575 26.7921 304.952 27.9217C303.35 29.0513 301.235 29.6162 298.606 29.6162C295.504 29.6162 293.009 28.7433 291.119 26.9975C289.23 25.2517 288.285 23.0438 288.285 20.3737Z" fill="white"/>
<path d="M80.985 36.2524H86.7957V44H85.5118V37.4367H82.2579V44H80.985V36.2524ZM91.6338 36.2524C92.1282 36.2524 92.5746 36.3631 92.973 36.5845C93.3789 36.8058 93.6961 37.112 93.9249 37.5031C94.1536 37.8942 94.268 38.3295 94.268 38.8091C94.268 39.5396 94.0171 40.1483 93.5154 40.6353C93.0136 41.1223 92.3864 41.3658 91.6338 41.3658H90.04V44H88.7672V36.2524H91.6338ZM91.5674 40.1594C91.774 40.1594 91.9622 40.1262 92.1319 40.0598C92.309 39.9934 92.4602 39.9012 92.5857 39.7831C92.7111 39.665 92.807 39.5212 92.8734 39.3515C92.9472 39.1817 92.9841 39.001 92.9841 38.8091C92.9841 38.5509 92.9214 38.3221 92.7959 38.1229C92.6779 37.9163 92.5119 37.754 92.2979 37.6359C92.0839 37.5179 91.8404 37.4588 91.5674 37.4588H90.04V40.1594H91.5674ZM99.1626 44.1439C97.9894 44.1439 97.0154 43.7639 96.2407 43.0039C95.4659 42.2365 95.0785 41.2773 95.0785 40.1262C95.0785 38.9751 95.4659 38.0196 96.2407 37.2596C97.0154 36.4922 97.9894 36.1085 99.1626 36.1085C100.336 36.1085 101.31 36.4922 102.085 37.2596C102.859 38.0196 103.247 38.9751 103.247 40.1262C103.247 40.8788 103.07 41.565 102.715 42.1849C102.369 42.7973 101.882 43.2769 101.254 43.6237C100.635 43.9705 99.9374 44.1439 99.1626 44.1439ZM97.1704 42.1295C97.7016 42.6608 98.3657 42.9264 99.1626 42.9264C99.9669 42.9264 100.631 42.6608 101.155 42.1295C101.686 41.5909 101.952 40.9231 101.952 40.1262C101.952 39.3293 101.686 38.6652 101.155 38.134C100.631 37.5953 99.9669 37.326 99.1626 37.326C98.3657 37.326 97.7016 37.5953 97.1704 38.134C96.6391 38.6652 96.3735 39.3293 96.3735 40.1262C96.3735 40.9231 96.6391 41.5909 97.1704 42.1295ZM112.988 40.1151C112.988 40.6243 112.904 41.1113 112.734 41.5761C112.572 42.041 112.332 42.4579 112.014 42.8268C111.705 43.1957 111.31 43.4983 110.83 43.7344C110.351 43.9631 109.819 44.0959 109.236 44.1328V45.3171H107.997V44.1328C107.414 44.0959 106.883 43.9631 106.403 43.7344C105.923 43.4983 105.525 43.1994 105.208 42.8379C104.898 42.4689 104.658 42.052 104.488 41.5872C104.319 41.1223 104.234 40.639 104.234 40.1373C104.234 39.7315 104.285 39.3404 104.389 38.9641C104.492 38.5804 104.651 38.2262 104.865 37.9016C105.079 37.5695 105.333 37.2781 105.628 37.0272C105.931 36.7689 106.281 36.5623 106.68 36.4074C107.085 36.245 107.525 36.1491 107.997 36.1196V35.0792H109.236V36.1196C109.819 36.1565 110.351 36.2893 110.83 36.5181C111.31 36.7468 111.705 37.0456 112.014 37.4146C112.332 37.7761 112.572 38.1893 112.734 38.6542C112.904 39.119 112.988 39.606 112.988 40.1151ZM109.225 42.9264C109.978 42.86 110.579 42.5612 111.029 42.0299C111.479 41.4913 111.705 40.8567 111.705 40.1262C111.705 39.4031 111.479 38.7759 111.029 38.2447C110.579 37.706 109.978 37.4035 109.225 37.3371V42.9264ZM105.529 40.1262C105.529 40.8493 105.75 41.4802 106.193 42.0188C106.643 42.5575 107.244 42.86 107.997 42.9264V37.3371C107.252 37.4035 106.654 37.706 106.204 38.2447C105.754 38.7759 105.529 39.4031 105.529 40.1262ZM115.754 42.7936H119.107V44H114.481V36.2524H118.985V37.4478H115.754V39.4621H118.698V40.6353H115.754V42.7936ZM123.988 44.1328C122.844 44.1328 121.892 43.7565 121.132 43.0039C120.379 42.2439 120.003 41.2847 120.003 40.1262C120.003 38.9678 120.379 38.0122 121.132 37.2596C121.892 36.4996 122.844 36.1196 123.988 36.1196C124.593 36.1196 125.153 36.2377 125.67 36.4738C126.186 36.7099 126.618 37.0456 126.965 37.481C127.319 37.9163 127.562 38.4217 127.695 38.9973H126.411C126.227 38.4808 125.921 38.0786 125.493 37.7909C125.065 37.4957 124.563 37.3482 123.988 37.3482C123.213 37.3482 122.571 37.6101 122.062 38.134C121.553 38.6579 121.298 39.3256 121.298 40.1373C121.298 40.9416 121.553 41.6056 122.062 42.1295C122.571 42.646 123.213 42.9043 123.988 42.9043C124.578 42.9043 125.091 42.7493 125.526 42.4394C125.961 42.1221 126.264 41.6905 126.434 41.1445H127.729C127.529 42.052 127.09 42.7788 126.411 43.3249C125.733 43.8635 124.925 44.1328 123.988 44.1328ZM132.559 44.1328C131.415 44.1328 130.463 43.7565 129.703 43.0039C128.951 42.2439 128.574 41.2847 128.574 40.1262C128.574 38.9678 128.951 38.0122 129.703 37.2596C130.463 36.4996 131.415 36.1196 132.559 36.1196C133.164 36.1196 133.725 36.2377 134.241 36.4738C134.758 36.7099 135.189 37.0456 135.536 37.481C135.89 37.9163 136.134 38.4217 136.266 38.9973H134.983C134.798 38.4808 134.492 38.0786 134.064 37.7909C133.636 37.4957 133.134 37.3482 132.559 37.3482C131.784 37.3482 131.142 37.6101 130.633 38.134C130.124 38.6579 129.869 39.3256 129.869 40.1373C129.869 40.9416 130.124 41.6056 130.633 42.1295C131.142 42.646 131.784 42.9043 132.559 42.9043C133.149 42.9043 133.662 42.7493 134.097 42.4394C134.533 42.1221 134.835 41.6905 135.005 41.1445H136.3C136.1 42.052 135.661 42.7788 134.983 43.3249C134.304 43.8635 133.496 44.1328 132.559 44.1328ZM142.934 36.2524H143.853V44H142.591V38.632L138.529 44H137.643V36.2524H138.916V41.565L142.934 36.2524ZM149.422 44.1439C148.249 44.1439 147.275 43.7639 146.5 43.0039C145.726 42.2365 145.338 41.2773 145.338 40.1262C145.338 38.9751 145.726 38.0196 146.5 37.2596C147.275 36.4922 148.249 36.1085 149.422 36.1085C150.596 36.1085 151.57 36.4922 152.344 37.2596C153.119 38.0196 153.506 38.9751 153.506 40.1262C153.506 40.8788 153.329 41.565 152.975 42.1849C152.628 42.7973 152.141 43.2769 151.514 43.6237C150.894 43.9705 150.197 44.1439 149.422 44.1439ZM147.43 42.1295C147.961 42.6608 148.626 42.9264 149.422 42.9264C150.227 42.9264 150.891 42.6608 151.415 42.1295C151.946 41.5909 152.212 40.9231 152.212 40.1262C152.212 39.3293 151.946 38.6652 151.415 38.134C150.891 37.5953 150.227 37.326 149.422 37.326C148.626 37.326 147.961 37.5953 147.43 38.134C146.899 38.6652 146.633 39.3293 146.633 40.1262C146.633 40.9231 146.899 41.5909 147.43 42.1295ZM159.795 36.2524H161.068V44H159.795V40.6243H156.253V44H154.98V36.2524H156.253V39.4179H159.795V36.2524ZM168.334 44L167.659 42.3177H164.206L163.542 44H162.192L165.313 36.2524H166.508L169.707 44H168.334ZM165.922 37.9126L164.649 41.1777H167.216L165.922 37.9126ZM172.187 36.2524H177.134V44H175.861V37.4367H173.327L172.961 41.388C172.792 43.1367 171.958 44.0111 170.46 44.0111H170.095V42.7604H170.46C171.183 42.7604 171.585 42.3177 171.666 41.4322L172.187 36.2524ZM182.016 38.8313C182.798 38.8313 183.44 39.0748 183.942 39.5617C184.444 40.0487 184.694 40.6685 184.694 41.4212C184.694 42.1664 184.444 42.7825 183.942 43.2695C183.44 43.7565 182.798 44 182.016 44H179.105V36.2524H180.378V38.8313H182.016ZM181.927 42.8047C182.355 42.8047 182.706 42.6755 182.979 42.4173C183.259 42.1517 183.399 41.8159 183.399 41.4101C183.399 41.0043 183.259 40.6722 182.979 40.414C182.706 40.1483 182.355 40.0155 181.927 40.0155H180.378V42.8047H181.927ZM190.826 36.2524H192.099V44H190.826V40.6243H187.285V44H186.012V36.2524H187.285V39.4179H190.826V36.2524ZM197.65 44.1439C196.477 44.1439 195.503 43.7639 194.728 43.0039C193.953 42.2365 193.566 41.2773 193.566 40.1262C193.566 38.9751 193.953 38.0196 194.728 37.2596C195.503 36.4922 196.477 36.1085 197.65 36.1085C198.823 36.1085 199.797 36.4922 200.572 37.2596C201.347 38.0196 201.734 38.9751 201.734 40.1262C201.734 40.8788 201.557 41.565 201.203 42.1849C200.856 42.7973 200.369 43.2769 199.742 43.6237C199.122 43.9705 198.425 44.1439 197.65 44.1439ZM195.658 42.1295C196.189 42.6608 196.853 42.9264 197.65 42.9264C198.454 42.9264 199.119 42.6608 199.642 42.1295C200.174 41.5909 200.439 40.9231 200.439 40.1262C200.439 39.3293 200.174 38.6652 199.642 38.134C199.119 37.5953 198.454 37.326 197.65 37.326C196.853 37.326 196.189 37.5953 195.658 38.134C195.127 38.6652 194.861 39.3293 194.861 40.1262C194.861 40.9231 195.127 41.5909 195.658 42.1295ZM204.481 42.7936H207.835V44H203.208V36.2524H207.713V37.4478H204.481V39.4621H207.425V40.6353H204.481V42.7936ZM218.312 42.8157H219.086V45.5052H217.913V44H212.612V45.5052H211.439V42.8157H212.047C212.143 42.7493 212.224 42.6792 212.291 42.6054C212.357 42.5317 212.424 42.4283 212.49 42.2955C212.556 42.1627 212.612 42.0225 212.656 41.875C212.7 41.7274 212.745 41.5245 212.789 41.2662C212.84 41.0006 212.885 40.7313 212.922 40.4583C212.959 40.1779 212.999 39.8126 213.043 39.3625C213.095 38.905 213.139 38.4476 213.176 37.9901C213.22 37.5252 213.272 36.946 213.331 36.2524H218.312V42.8157ZM214.471 37.4367C214.338 39.2371 214.202 40.5099 214.062 41.2551C213.921 41.993 213.707 42.5132 213.42 42.8157H217.028V37.4367H214.471ZM224.034 44.1439C222.861 44.1439 221.887 43.7639 221.112 43.0039C220.337 42.2365 219.95 41.2773 219.95 40.1262C219.95 38.9751 220.337 38.0196 221.112 37.2596C221.887 36.4922 222.861 36.1085 224.034 36.1085C225.207 36.1085 226.181 36.4922 226.956 37.2596C227.731 38.0196 228.118 38.9751 228.118 40.1262C228.118 40.8788 227.941 41.565 227.587 42.1849C227.24 42.7973 226.753 43.2769 226.126 43.6237C225.506 43.9705 224.809 44.1439 224.034 44.1439ZM222.042 42.1295C222.573 42.6608 223.237 42.9264 224.034 42.9264C224.838 42.9264 225.502 42.6608 226.026 42.1295C226.557 41.5909 226.823 40.9231 226.823 40.1262C226.823 39.3293 226.557 38.6652 226.026 38.134C225.502 37.5953 224.838 37.326 224.034 37.326C223.237 37.326 222.573 37.5953 222.042 38.134C221.51 38.6652 221.245 39.3293 221.245 40.1262C221.245 40.9231 221.51 41.5909 222.042 42.1295ZM238.758 44H237.463L236.555 38.3885L234.043 43.8783H233.722L231.198 38.3885L230.291 44H228.996L230.258 36.2524H231.508L233.877 41.5208L236.245 36.2524H237.507L238.758 44ZM243.716 44.1439C242.543 44.1439 241.569 43.7639 240.794 43.0039C240.02 42.2365 239.632 41.2773 239.632 40.1262C239.632 38.9751 240.02 38.0196 240.794 37.2596C241.569 36.4922 242.543 36.1085 243.716 36.1085C244.889 36.1085 245.863 36.4922 246.638 37.2596C247.413 38.0196 247.8 38.9751 247.8 40.1262C247.8 40.8788 247.623 41.565 247.269 42.1849C246.922 42.7973 246.435 43.2769 245.808 43.6237C245.188 43.9705 244.491 44.1439 243.716 44.1439ZM241.724 42.1295C242.255 42.6608 242.919 42.9264 243.716 42.9264C244.521 42.9264 245.185 42.6608 245.708 42.1295C246.24 41.5909 246.505 40.9231 246.505 40.1262C246.505 39.3293 246.24 38.6652 245.708 38.134C245.185 37.5953 244.521 37.326 243.716 37.326C242.919 37.326 242.255 37.5953 241.724 38.134C241.193 38.6652 240.927 39.3293 240.927 40.1262C240.927 40.9231 241.193 41.5909 241.724 42.1295ZM252.761 44.1328C251.617 44.1328 250.665 43.7565 249.905 43.0039C249.153 42.2439 248.776 41.2847 248.776 40.1262C248.776 38.9678 249.153 38.0122 249.905 37.2596C250.665 36.4996 251.617 36.1196 252.761 36.1196C253.366 36.1196 253.926 36.2377 254.443 36.4738C254.96 36.7099 255.391 37.0456 255.738 37.481C256.092 37.9163 256.336 38.4217 256.468 38.9973H255.185C255 38.4808 254.694 38.0786 254.266 37.7909C253.838 37.4957 253.336 37.3482 252.761 37.3482C251.986 37.3482 251.344 37.6101 250.835 38.134C250.326 38.6579 250.071 39.3256 250.071 40.1373C250.071 40.9416 250.326 41.6056 250.835 42.1295C251.344 42.646 251.986 42.9043 252.761 42.9043C253.351 42.9043 253.864 42.7493 254.299 42.4394C254.734 42.1221 255.037 41.6905 255.207 41.1445H256.502C256.302 42.052 255.863 42.7788 255.185 43.3249C254.506 43.8635 253.698 44.1328 252.761 44.1328ZM262.796 36.2524V37.4367H260.516V44H259.254V37.4367H256.974V36.2524H262.796ZM266.884 36.2524C267.378 36.2524 267.825 36.3631 268.223 36.5845C268.629 36.8058 268.946 37.112 269.175 37.5031C269.404 37.8942 269.518 38.3295 269.518 38.8091C269.518 39.5396 269.267 40.1483 268.765 40.6353C268.264 41.1223 267.636 41.3658 266.884 41.3658H265.29V44H264.017V36.2524H266.884ZM266.817 40.1594C267.024 40.1594 267.212 40.1262 267.382 40.0598C267.559 39.9934 267.71 39.9012 267.836 39.7831C267.961 39.665 268.057 39.5212 268.123 39.3515C268.197 39.1817 268.234 39.001 268.234 38.8091C268.234 38.5509 268.171 38.3221 268.046 38.1229C267.928 37.9163 267.762 37.754 267.548 37.6359C267.334 37.5179 267.09 37.4588 266.817 37.4588H265.29V40.1594H266.817ZM274.413 44.1439C273.239 44.1439 272.265 43.7639 271.491 43.0039C270.716 42.2365 270.328 41.2773 270.328 40.1262C270.328 38.9751 270.716 38.0196 271.491 37.2596C272.265 36.4922 273.239 36.1085 274.413 36.1085C275.586 36.1085 276.56 36.4922 277.334 37.2596C278.109 38.0196 278.497 38.9751 278.497 40.1262C278.497 40.8788 278.32 41.565 277.965 42.1849C277.619 42.7973 277.132 43.2769 276.504 43.6237C275.885 43.9705 275.187 44.1439 274.413 44.1439ZM272.42 42.1295C272.952 42.6608 273.616 42.9264 274.413 42.9264C275.217 42.9264 275.881 42.6608 276.405 42.1295C276.936 41.5909 277.202 40.9231 277.202 40.1262C277.202 39.3293 276.936 38.6652 276.405 38.134C275.881 37.5953 275.217 37.326 274.413 37.326C273.616 37.326 272.952 37.5953 272.42 38.134C271.889 38.6652 271.623 39.3293 271.623 40.1262C271.623 40.9231 271.889 41.5909 272.42 42.1295ZM281.243 42.7936H284.597V44H279.971V36.2524H284.475V37.4478H281.243V39.4621H284.187V40.6353H281.243V42.7936ZM290.935 36.2524H292.208V44H290.935V40.6243H287.393V44H286.121V36.2524H287.393V39.4179H290.935V36.2524ZM299.463 36.2524H300.382V44H299.12V38.632L295.058 44H294.173V36.2524H295.446V41.565L299.463 36.2524ZM303.639 42.7936H306.992V44H302.366V36.2524H306.871V37.4478H303.639V39.4621H306.583V40.6353H303.639V42.7936Z" fill="white"/>
<path d="M32 37L52 17L72 37" stroke="white" stroke-width="9" stroke-linecap="round" stroke-linejoin="round"/>
<path d="M5 37L30 12L55 37" stroke="white" stroke-width="9" stroke-linecap="round" stroke-linejoin="round"/>
</svg>
