<svg width="142" height="22" viewBox="0 0 142 22" fill="none" xmlns="http://www.w3.org/2000/svg">
<g clip-path="url(#clip0_321_6426)">
<path d="M43.843 12.4444C43.0571 12.4444 42.4889 11.9738 42.1385 11.0324L41.0733 8.3495H40.9312L40.2921 12.0208C40.2163 12.4538 40.0364 12.7974 39.7523 13.0516C39.4777 13.3058 39.1131 13.4329 38.6586 13.4329C38.2041 13.4329 37.8395 13.3058 37.5649 13.0516C37.2998 12.788 37.1672 12.4444 37.1672 12.0208C37.1672 11.8514 37.1767 11.6631 37.1956 11.456C37.224 11.2395 37.2524 11.07 37.2808 10.9477L37.3092 10.75L38.3035 4.81942C38.3888 4.30167 38.6066 3.89218 38.9569 3.59094C39.3072 3.28029 39.776 3.12497 40.3631 3.12497C41.3289 3.12497 42.0391 3.68979 42.4936 4.81942L43.772 8.12359H43.914L45.1924 4.81942C45.6279 3.68979 46.3381 3.12497 47.3229 3.12497C47.9098 3.12497 48.3787 3.28029 48.7291 3.59094C49.0795 3.89218 49.2971 4.30167 49.3824 4.81942L50.3768 10.75C50.4713 11.2207 50.5188 11.6443 50.5188 12.0208C50.5188 12.4444 50.3814 12.788 50.1067 13.0516C49.8416 13.3058 49.482 13.4329 49.0274 13.4329C48.5728 13.4329 48.2035 13.3058 47.9195 13.0516C47.6447 12.7974 47.4695 12.4538 47.3939 12.0208L46.7549 8.3495H46.6129L45.5474 11.0324C45.1876 11.9738 44.6195 12.4444 43.843 12.4444ZM55.0707 8.63193H56.7751L55.9937 6.51388H55.8517L55.0707 8.63193ZM54.4317 11.1736L54.0762 12.0208C53.6788 12.9622 53.1103 13.4329 52.3717 13.4329C51.9172 13.4329 51.5433 13.2964 51.2496 13.0234C50.9564 12.7504 50.8093 12.4162 50.8093 12.0208C50.8093 11.8985 50.8379 11.7337 50.8946 11.5266C50.9517 11.3101 51.0085 11.1265 51.0652 10.9759L51.1647 10.75L53.4372 4.81942C53.6645 4.25461 53.9674 3.83099 54.3464 3.54858C54.7249 3.26617 55.2505 3.12497 55.9227 3.12497C56.5953 3.12497 57.1209 3.26617 57.4994 3.54858C57.8876 3.83099 58.1905 4.25461 58.4086 4.81942L60.6811 10.75C60.918 11.3148 61.0361 11.7384 61.0361 12.0208C61.0361 12.4162 60.8894 12.7504 60.5958 13.0234C60.3025 13.2964 59.9282 13.4329 59.4736 13.4329C58.735 13.4329 58.167 12.9622 57.7691 12.0208L57.4141 11.1736H54.4317ZM61.3228 9.33794V7.36111C61.3228 6.13731 61.7585 5.12536 62.6299 4.32521C63.5008 3.52505 64.6515 3.12497 66.0812 3.12497C67.2366 3.12497 68.1739 3.38385 68.8935 3.90159C69.6229 4.41934 69.9871 4.96063 69.9871 5.52544C69.9871 5.92079 69.8548 6.23145 69.5897 6.45736C69.3338 6.68332 68.9456 6.79626 68.4251 6.79626C68.0365 6.79626 67.6344 6.63153 67.2177 6.30208C66.8106 5.97259 66.4316 5.80786 66.0812 5.80786C65.6174 5.80786 65.2384 5.95375 64.9452 6.24557C64.6607 6.52799 64.5187 6.89984 64.5187 7.36111V9.33794C64.5187 9.79921 64.6607 10.1758 64.9452 10.4676C65.2384 10.75 65.6174 10.8912 66.0812 10.8912C66.4883 10.8912 66.9097 10.7265 67.3454 10.397C67.7903 10.0675 68.1978 9.90275 68.5671 9.90275C69.0876 9.90275 69.4758 10.0157 69.7317 10.2416C69.9968 10.4676 70.1296 10.7782 70.1296 11.1736C70.1296 11.7384 69.7552 12.2797 69.0074 12.7974C68.2688 13.3152 67.2933 13.5741 66.0812 13.5741C64.6515 13.5741 63.5008 13.174 62.6299 12.3739C61.7585 11.5737 61.3228 10.5617 61.3228 9.33794ZM73.4643 6.23145H71.9023C71.4099 6.23145 71.0263 6.10436 70.7515 5.85021C70.4767 5.59606 70.3398 5.25245 70.3398 4.81942C70.3398 4.38639 70.4767 4.0428 70.7515 3.78863C71.0263 3.53446 71.4099 3.40738 71.9023 3.40738H78.1517C78.6441 3.40738 79.0276 3.53446 79.3024 3.78863C79.5767 4.0428 79.7141 4.38639 79.7141 4.81942C79.7141 5.25245 79.5767 5.59606 79.3024 5.85021C79.0276 6.10436 78.6441 6.23145 78.1517 6.23145H76.5892V12.0208C76.5892 12.4538 76.4518 12.7974 76.1775 13.0516C75.9027 13.3058 75.5191 13.4329 75.0267 13.4329C74.5343 13.4329 74.1512 13.3058 73.8764 13.0516C73.6017 12.7974 73.4643 12.4538 73.4643 12.0208V6.23145ZM87.5993 6.23145H83.7644V7.07868H86.4633C86.8796 7.07868 87.2208 7.20106 87.4859 7.44581C87.751 7.69056 87.8837 7.99182 87.8837 8.3495C87.8837 8.70723 87.751 9.00849 87.4859 9.25324C87.2208 9.49799 86.8796 9.62037 86.4633 9.62037H83.7644V10.4676H87.7413C88.2337 10.4676 88.6172 10.5946 88.892 10.8488C89.1668 11.103 89.3037 11.4466 89.3037 11.8796C89.3037 12.3127 89.1668 12.6562 88.892 12.9104C88.6172 13.1646 88.2337 13.2917 87.7413 13.2917H82.2019C81.7095 13.2917 81.3259 13.1646 81.0516 12.9104C80.7768 12.6562 80.6394 12.3127 80.6394 11.8796V4.81942C80.6394 4.38639 80.7768 4.0428 81.0516 3.78863C81.3259 3.53446 81.7095 3.40738 82.2019 3.40738H87.5993C88.0917 3.40738 88.4752 3.53446 88.75 3.78863C89.0243 4.0428 89.1617 4.38639 89.1617 4.81942C89.1617 5.25245 89.0243 5.59606 88.75 5.85021C88.4752 6.10436 88.0917 6.23145 87.5993 6.23145ZM93.4881 7.7847H94.7661C95.1073 7.7847 95.3816 7.69528 95.59 7.51644C95.7984 7.33755 95.9026 7.12103 95.9026 6.86689C95.9026 6.61269 95.7984 6.39618 95.59 6.21734C95.3816 6.03849 95.1073 5.94907 94.7661 5.94907H93.4881V7.7847ZM94.7661 10.3264H93.4881V12.0208C93.4881 12.4538 93.3507 12.7974 93.076 13.0516C92.8012 13.3058 92.4181 13.4329 91.9257 13.4329C91.4333 13.4329 91.0497 13.3058 90.7749 13.0516C90.5006 12.7974 90.3632 12.4538 90.3632 12.0208V4.81942C90.3632 4.38639 90.5006 4.0428 90.7749 3.78863C91.0497 3.53446 91.4333 3.40738 91.9257 3.40738H94.7661C96.1391 3.40738 97.2142 3.73685 97.9906 4.39581C98.7762 5.04533 99.1695 5.86905 99.1695 6.86689C99.1695 7.86472 98.7762 8.69311 97.9906 9.35206C97.2142 10.0016 96.1391 10.3264 94.7661 10.3264Z" fill="#F25722"/>
<path d="M104.074 10.75L106.205 8.20834L104.359 5.94907C103.98 5.47836 103.79 5.05477 103.79 4.67821C103.79 4.25461 103.923 3.91571 104.188 3.66154C104.463 3.39797 104.827 3.26617 105.282 3.26617C105.538 3.26617 105.784 3.32736 106.021 3.44974C106.257 3.5627 106.428 3.68037 106.532 3.80275L106.702 3.97219L108.123 5.80786H108.265L109.685 3.97219C109.723 3.91571 109.78 3.84982 109.855 3.77451C109.941 3.6992 110.107 3.59565 110.353 3.46386C110.599 3.33207 110.85 3.26617 111.105 3.26617C111.56 3.26617 111.92 3.39797 112.185 3.66154C112.46 3.91571 112.597 4.25461 112.597 4.67821C112.597 4.84765 112.55 5.04066 112.455 5.25717C112.36 5.46425 112.265 5.62897 112.171 5.75135L112.029 5.94907L110.182 8.20834L112.313 10.75C112.692 11.2207 112.881 11.6443 112.881 12.0208C112.881 12.4444 112.744 12.788 112.469 13.0516C112.204 13.3058 111.844 13.4329 111.39 13.4329C111.134 13.4329 110.888 13.3764 110.651 13.2634C110.414 13.1411 110.244 13.0187 110.14 12.8963L109.969 12.7269L108.265 10.6794H108.123L106.418 12.7269C106.381 12.7833 106.319 12.8492 106.234 12.9245C106.158 12.9998 105.997 13.1034 105.751 13.2352C105.505 13.367 105.254 13.4329 104.998 13.4329C104.543 13.4329 104.179 13.3058 103.904 13.0516C103.639 12.788 103.506 12.4444 103.506 12.0208C103.506 11.8514 103.554 11.6631 103.648 11.456C103.743 11.2395 103.838 11.07 103.932 10.9477L104.074 10.75ZM117.212 8.63193H118.917L118.135 6.51388H117.993L117.212 8.63193ZM116.573 11.1736L116.218 12.0208C115.82 12.9622 115.252 13.4329 114.513 13.4329C114.059 13.4329 113.685 13.2964 113.391 13.0234C113.098 12.7504 112.951 12.4162 112.951 12.0208C112.951 11.8985 112.979 11.7337 113.036 11.5266C113.093 11.3101 113.15 11.1265 113.207 10.9759L113.306 10.75L115.579 4.81942C115.806 4.25461 116.109 3.83099 116.487 3.54858C116.866 3.26617 117.392 3.12497 118.064 3.12497C118.736 3.12497 119.262 3.26617 119.641 3.54858C120.029 3.83099 120.332 4.25461 120.55 4.81942L122.823 10.75C123.059 11.3148 123.178 11.7384 123.178 12.0208C123.178 12.4162 123.031 12.7504 122.737 13.0234C122.444 13.2964 122.07 13.4329 121.615 13.4329C120.877 13.4329 120.309 12.9622 119.911 12.0208L119.556 11.1736H116.573ZM126.298 10.6088L123.529 5.94907C123.292 5.57251 123.174 5.14891 123.174 4.67821C123.174 4.28284 123.321 3.94866 123.614 3.67567C123.907 3.40267 124.282 3.26617 124.736 3.26617C125.399 3.26617 125.967 3.73685 126.44 4.67821L128.003 7.64349H128.145L129.352 4.67821C129.778 3.73685 130.347 3.26617 131.057 3.26617C131.511 3.26617 131.885 3.40267 132.179 3.67567C132.473 3.94866 132.619 4.28284 132.619 4.67821C132.619 4.88533 132.586 5.09712 132.52 5.31364C132.463 5.52071 132.406 5.67604 132.35 5.77963L132.264 5.94907L129.992 10.6088C129.584 11.4654 129.026 12.1762 128.315 12.741C127.615 13.2964 126.8 13.5741 125.872 13.5741C125.153 13.5741 124.594 13.414 124.197 13.094C123.799 12.7645 123.6 12.3597 123.6 11.8796C123.6 11.5219 123.723 11.2207 123.969 10.9759C124.215 10.7312 124.518 10.6088 124.878 10.6088C125.086 10.6088 125.285 10.6558 125.475 10.75C125.664 10.8441 125.797 10.8912 125.872 10.8912C125.958 10.8912 126.033 10.8677 126.1 10.8206C126.175 10.7735 126.227 10.7265 126.256 10.6794L126.298 10.6088ZM132.911 9.33794V7.36111C132.911 6.13731 133.346 5.12536 134.217 4.32521C135.089 3.52505 136.239 3.12497 137.669 3.12497C138.824 3.12497 139.762 3.38385 140.481 3.90159C141.21 4.41934 141.575 4.96063 141.575 5.52544C141.575 5.92079 141.442 6.23145 141.177 6.45736C140.922 6.68332 140.533 6.79626 140.012 6.79626C139.624 6.79626 139.222 6.63153 138.805 6.30208C138.398 5.97259 138.019 5.80786 137.669 5.80786C137.205 5.80786 136.826 5.95375 136.533 6.24557C136.249 6.52799 136.107 6.89984 136.107 7.36111V9.33794C136.107 9.79921 136.249 10.1758 136.533 10.4676C136.826 10.75 137.205 10.8912 137.669 10.8912C138.076 10.8912 138.497 10.7265 138.933 10.397C139.378 10.0675 139.785 9.90275 140.154 9.90275C140.675 9.90275 141.064 10.0157 141.319 10.2416C141.584 10.4676 141.717 10.7782 141.717 11.1736C141.717 11.7384 141.343 12.2797 140.595 12.7974C139.856 13.3152 138.881 13.5741 137.669 13.5741C136.239 13.5741 135.089 13.174 134.217 12.3739C133.346 11.5737 132.911 10.5617 132.911 9.33794Z" fill="#83CB2F"/>
<path d="M37.3373 16.6157H40.0162V20.1667H39.4243V17.1585H37.9241V20.1667H37.3373V16.6157ZM42.2468 16.6157C42.4747 16.6157 42.6805 16.6664 42.8642 16.7679C43.0514 16.8693 43.1976 17.0097 43.3031 17.1889C43.4085 17.3682 43.4613 17.5677 43.4613 17.7875C43.4613 18.1223 43.3456 18.4013 43.1143 18.6245C42.8829 18.8477 42.5938 18.9593 42.2468 18.9593H41.512V20.1667H40.9252V16.6157H42.2468ZM42.2162 18.4064C42.3114 18.4064 42.3982 18.3912 42.4764 18.3607C42.5581 18.3303 42.6278 18.288 42.6857 18.2339C42.7435 18.1798 42.7877 18.1139 42.8183 18.0361C42.8523 17.9583 42.8693 17.8754 42.8693 17.7875C42.8693 17.6692 42.8404 17.5643 42.7826 17.473C42.7282 17.3783 42.6516 17.3039 42.553 17.2498C42.4543 17.1957 42.342 17.1686 42.2162 17.1686H41.512V18.4064H42.2162ZM45.7179 20.2326C45.177 20.2326 44.7279 20.0584 44.3708 19.7101C44.0135 19.3584 43.8349 18.9188 43.8349 18.3912C43.8349 17.8636 44.0135 17.4256 44.3708 17.0773C44.7279 16.7256 45.177 16.5497 45.7179 16.5497C46.2588 16.5497 46.7079 16.7256 47.0652 17.0773C47.422 17.4256 47.6009 17.8636 47.6009 18.3912C47.6009 18.7361 47.5193 19.0506 47.3557 19.3347C47.1961 19.6154 46.9716 19.8352 46.6821 19.9942C46.3967 20.1531 46.0751 20.2326 45.7179 20.2326ZM44.7994 19.3093C45.0443 19.5529 45.3505 19.6746 45.7179 19.6746C46.0887 19.6746 46.3949 19.5529 46.6364 19.3093C46.8812 19.0625 47.0039 18.7564 47.0039 18.3912C47.0039 18.0259 46.8812 17.7215 46.6364 17.4781C46.3949 17.2312 46.0887 17.1077 45.7179 17.1077C45.3505 17.1077 45.0443 17.2312 44.7994 17.4781C44.5544 17.7215 44.432 18.0259 44.432 18.3912C44.432 18.7564 44.5544 19.0625 44.7994 19.3093ZM52.0919 18.3861C52.0919 18.6195 52.0532 18.8427 51.9748 19.0557C51.9001 19.2688 51.7895 19.4599 51.6429 19.6289C51.5004 19.798 51.3183 19.9367 51.097 20.0449C50.8762 20.1497 50.6309 20.2106 50.3621 20.2275V20.7703H49.7909V20.2275C49.5221 20.2106 49.2773 20.1497 49.056 20.0449C48.8347 19.9367 48.6512 19.7997 48.505 19.634C48.3621 19.4649 48.2515 19.2738 48.1731 19.0608C48.0952 18.8477 48.056 18.6262 48.056 18.3963C48.056 18.2103 48.0795 18.031 48.1274 17.8585C48.1749 17.6827 48.2482 17.5203 48.3469 17.3716C48.4456 17.2193 48.5627 17.0858 48.6987 16.9708C48.8384 16.8524 48.9997 16.7577 49.1837 16.6867C49.3704 16.6123 49.5733 16.5683 49.7909 16.5548V16.078H50.3621V16.5548C50.6309 16.5717 50.8762 16.6326 51.097 16.7375C51.3183 16.8423 51.5004 16.9792 51.6429 17.1483C51.7895 17.314 51.9001 17.5034 51.9748 17.7165C52.0532 17.9295 52.0919 18.1527 52.0919 18.3861ZM50.357 19.6746C50.7042 19.6442 50.9813 19.5072 51.1887 19.2637C51.3962 19.0168 51.5004 18.726 51.5004 18.3912C51.5004 18.0597 51.3962 17.7723 51.1887 17.5288C50.9813 17.2819 50.7042 17.1433 50.357 17.1128V19.6746ZM48.653 18.3912C48.653 18.7226 48.7549 19.0117 48.9592 19.2586C49.1666 19.5055 49.4437 19.6442 49.7909 19.6746V17.1128C49.4474 17.1433 49.1717 17.2819 48.9642 17.5288C48.7568 17.7723 48.653 18.0597 48.653 18.3912ZM53.3671 19.6137H54.913V20.1667H52.7802V16.6157H54.8568V17.1636H53.3671V18.0868H54.7244V18.6245H53.3671V19.6137ZM57.1633 20.2275C56.6359 20.2275 56.197 20.0551 55.8466 19.7101C55.4995 19.3618 55.3261 18.9221 55.3261 18.3912C55.3261 17.8602 55.4995 17.4222 55.8466 17.0773C56.197 16.729 56.6359 16.5548 57.1633 16.5548C57.4423 16.5548 57.7004 16.6089 57.9388 16.7171C58.1767 16.8254 58.3759 16.9792 58.5359 17.1788C58.6991 17.3783 58.8111 17.6099 58.8724 17.8738H58.2804C58.1956 17.637 58.0545 17.4527 57.8572 17.3208C57.6599 17.1855 57.4284 17.1179 57.1633 17.1179C56.806 17.1179 56.51 17.238 56.2754 17.4781C56.0407 17.7182 55.9231 18.0242 55.9231 18.3963C55.9231 18.7649 56.0407 19.0692 56.2754 19.3093C56.51 19.5461 56.806 19.6645 57.1633 19.6645C57.4354 19.6645 57.6719 19.5934 57.8724 19.4514C58.073 19.306 58.2127 19.1081 58.291 18.8579H58.8881C58.7959 19.2738 58.5935 19.6069 58.2804 19.8572C57.9679 20.1041 57.5953 20.2275 57.1633 20.2275ZM61.1149 20.2275C60.5875 20.2275 60.1486 20.0551 59.7982 19.7101C59.4515 19.3618 59.2777 18.9221 59.2777 18.3912C59.2777 17.8602 59.4515 17.4222 59.7982 17.0773C60.1486 16.729 60.5875 16.5548 61.1149 16.5548C61.3938 16.5548 61.6525 16.6089 61.8904 16.7171C62.1287 16.8254 62.3274 16.9792 62.4874 17.1788C62.6506 17.3783 62.7631 17.6099 62.824 17.8738H62.2325C62.1472 17.637 62.0061 17.4527 61.8088 17.3208C61.6114 17.1855 61.38 17.1179 61.1149 17.1179C60.7576 17.1179 60.4616 17.238 60.2269 17.4781C59.9923 17.7182 59.8747 18.0242 59.8747 18.3963C59.8747 18.7649 59.9923 19.0692 60.2269 19.3093C60.4616 19.5461 60.7576 19.6645 61.1149 19.6645C61.3869 19.6645 61.6234 19.5934 61.824 19.4514C62.025 19.306 62.1642 19.1081 62.2426 18.8579H62.8397C62.7474 19.2738 62.545 19.6069 62.2325 19.8572C61.9194 20.1041 61.5469 20.2275 61.1149 20.2275ZM65.8982 16.6157H66.3219V20.1667H65.74V17.7063L63.8673 20.1667H63.4588V16.6157H64.0457V19.0506L65.8982 16.6157ZM68.8894 20.2326C68.3486 20.2326 67.8996 20.0584 67.5422 19.7101C67.1854 19.3584 67.0065 18.9188 67.0065 18.3912C67.0065 17.8636 67.1854 17.4256 67.5422 17.0773C67.8996 16.7256 68.3486 16.5497 68.8894 16.5497C69.4307 16.5497 69.8797 16.7256 70.2366 17.0773C70.5939 17.4256 70.7723 17.8636 70.7723 18.3912C70.7723 18.7361 70.6907 19.0506 70.5275 19.3347C70.3675 19.6154 70.143 19.8352 69.8539 19.9942C69.5681 20.1531 69.2467 20.2326 68.8894 20.2326ZM67.971 19.3093C68.2158 19.5529 68.5224 19.6746 68.8894 19.6746C69.2605 19.6746 69.5667 19.5529 69.8083 19.3093C70.0531 19.0625 70.1757 18.7564 70.1757 18.3912C70.1757 18.0259 70.0531 17.7215 69.8083 17.4781C69.5667 17.2312 69.2605 17.1077 68.8894 17.1077C68.5224 17.1077 68.2158 17.2312 67.971 17.4781C67.7262 17.7215 67.6036 18.0259 67.6036 18.3912C67.6036 18.7564 67.7262 19.0625 67.971 19.3093ZM73.6718 16.6157H74.2587V20.1667H73.6718V18.6195H72.0388V20.1667H71.4519V16.6157H72.0388V18.0665H73.6718V16.6157ZM77.6086 20.1667L77.2974 19.3956H75.7054L75.3993 20.1667H74.7769L76.2158 16.6157H76.7667L78.2416 20.1667H77.6086ZM76.4965 17.3766L75.9096 18.8731H77.0931L76.4965 17.3766ZM79.385 16.6157H81.6657V20.1667H81.0788V17.1585H79.9105L79.7418 18.9695C79.6639 19.771 79.2794 20.1717 78.5887 20.1717H78.4205V19.5985H78.5887C78.9221 19.5985 79.1074 19.3956 79.1448 18.9897L79.385 16.6157ZM83.9165 17.7977C84.277 17.7977 84.573 17.9093 84.8045 18.1324C85.0359 18.3556 85.1512 18.6397 85.1512 18.9847C85.1512 19.3263 85.0359 19.6086 84.8045 19.8318C84.573 20.0551 84.277 20.1667 83.9165 20.1667H82.5744V16.6157H83.1613V17.7977H83.9165ZM83.8755 19.6188C84.0728 19.6188 84.2346 19.5596 84.3605 19.4413C84.4896 19.3195 84.5541 19.1656 84.5541 18.9796C84.5541 18.7936 84.4896 18.6414 84.3605 18.5231C84.2346 18.4013 84.0728 18.3404 83.8755 18.3404H83.1613V19.6188H83.8755ZM87.9783 16.6157H88.5652V20.1667H87.9783V18.6195H86.3457V20.1667H85.7588V16.6157H86.3457V18.0665H87.9783V16.6157ZM91.1244 20.2326C90.5836 20.2326 90.1345 20.0584 89.7772 19.7101C89.4199 19.3584 89.2415 18.9188 89.2415 18.3912C89.2415 17.8636 89.4199 17.4256 89.7772 17.0773C90.1345 16.7256 90.5836 16.5497 91.1244 16.5497C91.6652 16.5497 92.1142 16.7256 92.4715 17.0773C92.8289 17.4256 93.0073 17.8636 93.0073 18.3912C93.0073 18.7361 92.9257 19.0506 92.7625 19.3347C92.6025 19.6154 92.378 19.8352 92.0889 19.9942C91.803 20.1531 91.4817 20.2326 91.1244 20.2326ZM90.206 19.3093C90.4508 19.5529 90.7569 19.6746 91.1244 19.6746C91.4951 19.6746 91.8017 19.5529 92.0428 19.3093C92.2881 19.0625 92.4102 18.7564 92.4102 18.3912C92.4102 18.0259 92.2881 17.7215 92.0428 17.4781C91.8017 17.2312 91.4951 17.1077 91.1244 17.1077C90.7569 17.1077 90.4508 17.2312 90.206 17.4781C89.9612 17.7215 89.8386 18.0259 89.8386 18.3912C89.8386 18.7564 89.9612 19.0625 90.206 19.3093ZM94.2738 19.6137H95.8201V20.1667H93.6868V16.6157H95.7638V17.1636H94.2738V18.0868H95.6311V18.6245H94.2738V19.6137ZM100.65 19.6239H101.007V20.8565H100.466V20.1667H98.0225V20.8565H97.4817V19.6239H97.762C97.8062 19.5934 97.8436 19.5613 97.8745 19.5275C97.9049 19.4937 97.9358 19.4463 97.9662 19.3854C97.9966 19.3246 98.0225 19.2603 98.0427 19.1927C98.063 19.125 98.0838 19.0321 98.1041 18.9137C98.1276 18.7919 98.1483 18.6685 98.1654 18.5434C98.1824 18.4149 98.2009 18.2474 98.2212 18.0411C98.2451 17.8314 98.2654 17.6218 98.2825 17.4121C98.3028 17.199 98.3267 16.9336 98.3539 16.6157H100.65V19.6239ZM98.8795 17.1585C98.8182 17.9837 98.7555 18.567 98.691 18.9086C98.626 19.2468 98.5273 19.4852 98.395 19.6239H100.058V17.1585H98.8795ZM103.288 20.2326C102.748 20.2326 102.299 20.0584 101.941 19.7101C101.584 19.3584 101.406 18.9188 101.406 18.3912C101.406 17.8636 101.584 17.4256 101.941 17.0773C102.299 16.7256 102.748 16.5497 103.288 16.5497C103.829 16.5497 104.278 16.7256 104.636 17.0773C104.993 17.4256 105.171 17.8636 105.171 18.3912C105.171 18.7361 105.09 19.0506 104.927 19.3347C104.767 19.6154 104.542 19.8352 104.253 19.9942C103.967 20.1531 103.646 20.2326 103.288 20.2326ZM102.37 19.3093C102.615 19.5529 102.921 19.6746 103.288 19.6746C103.659 19.6746 103.965 19.5529 104.207 19.3093C104.452 19.0625 104.574 18.7564 104.574 18.3912C104.574 18.0259 104.452 17.7215 104.207 17.4781C103.965 17.2312 103.659 17.1077 103.288 17.1077C102.921 17.1077 102.615 17.2312 102.37 17.4781C102.125 17.7215 102.003 18.0259 102.003 18.3912C102.003 18.7564 102.125 19.0625 102.37 19.3093ZM110.077 20.1667H109.48L109.061 17.5947L107.903 20.1109H107.755L106.591 17.5947L106.173 20.1667H105.576L106.158 16.6157H106.734L107.826 19.0304L108.918 16.6157H109.5L110.077 20.1667ZM112.363 20.2326C111.822 20.2326 111.373 20.0584 111.015 19.7101C110.659 19.3584 110.48 18.9188 110.48 18.3912C110.48 17.8636 110.659 17.4256 111.015 17.0773C111.373 16.7256 111.822 16.5497 112.363 16.5497C112.903 16.5497 113.352 16.7256 113.71 17.0773C114.067 17.4256 114.245 17.8636 114.245 18.3912C114.245 18.7361 114.164 19.0506 114.001 19.3347C113.841 19.6154 113.616 19.8352 113.327 19.9942C113.041 20.1531 112.72 20.2326 112.363 20.2326ZM111.444 19.3093C111.689 19.5529 111.995 19.6746 112.363 19.6746C112.734 19.6746 113.04 19.5529 113.281 19.3093C113.526 19.0625 113.648 18.7564 113.648 18.3912C113.648 18.0259 113.526 17.7215 113.281 17.4781C113.04 17.2312 112.734 17.1077 112.363 17.1077C111.995 17.1077 111.689 17.2312 111.444 17.4781C111.199 17.7215 111.077 18.0259 111.077 18.3912C111.077 18.7564 111.199 19.0625 111.444 19.3093ZM116.533 20.2275C116.005 20.2275 115.566 20.0551 115.216 19.7101C114.869 19.3618 114.695 18.9221 114.695 18.3912C114.695 17.8602 114.869 17.4222 115.216 17.0773C115.566 16.729 116.005 16.5548 116.533 16.5548C116.812 16.5548 117.07 16.6089 117.308 16.7171C117.547 16.8254 117.745 16.9792 117.905 17.1788C118.068 17.3783 118.181 17.6099 118.242 17.8738H117.65C117.565 17.637 117.424 17.4527 117.227 17.3208C117.029 17.1855 116.798 17.1179 116.533 17.1179C116.175 17.1179 115.879 17.238 115.645 17.4781C115.41 17.7182 115.293 18.0242 115.293 18.3963C115.293 18.7649 115.41 19.0692 115.645 19.3093C115.879 19.5461 116.175 19.6645 116.533 19.6645C116.805 19.6645 117.041 19.5934 117.242 19.4514C117.442 19.306 117.582 19.1081 117.66 18.8579H118.257C118.165 19.2738 117.963 19.6069 117.65 19.8572C117.337 20.1041 116.965 20.2275 116.533 20.2275ZM121.159 16.6157V17.1585H120.108V20.1667H119.526V17.1585H118.475V16.6157H121.159ZM123.044 16.6157C123.272 16.6157 123.478 16.6664 123.661 16.7679C123.848 16.8693 123.995 17.0097 124.1 17.1889C124.206 17.3682 124.258 17.5677 124.258 17.7875C124.258 18.1223 124.143 18.4013 123.911 18.6245C123.68 18.8477 123.391 18.9593 123.044 18.9593H122.309V20.1667H121.722V16.6157H123.044ZM123.013 18.4064C123.109 18.4064 123.195 18.3912 123.274 18.3607C123.355 18.3303 123.425 18.288 123.483 18.2339C123.541 18.1798 123.585 18.1139 123.615 18.0361C123.649 17.9583 123.666 17.8754 123.666 17.7875C123.666 17.6692 123.637 17.5643 123.58 17.473C123.525 17.3783 123.449 17.3039 123.35 17.2498C123.251 17.1957 123.139 17.1686 123.013 17.1686H122.309V18.4064H123.013ZM126.515 20.2326C125.974 20.2326 125.525 20.0584 125.168 19.7101C124.811 19.3584 124.632 18.9188 124.632 18.3912C124.632 17.8636 124.811 17.4256 125.168 17.0773C125.525 16.7256 125.974 16.5497 126.515 16.5497C127.056 16.5497 127.505 16.7256 127.862 17.0773C128.219 17.4256 128.398 17.8636 128.398 18.3912C128.398 18.7361 128.316 19.0506 128.153 19.3347C127.993 19.6154 127.769 19.8352 127.479 19.9942C127.194 20.1531 126.872 20.2326 126.515 20.2326ZM125.596 19.3093C125.842 19.5529 126.148 19.6746 126.515 19.6746C126.886 19.6746 127.192 19.5529 127.434 19.3093C127.678 19.0625 127.801 18.7564 127.801 18.3912C127.801 18.0259 127.678 17.7215 127.434 17.4781C127.192 17.2312 126.886 17.1077 126.515 17.1077C126.148 17.1077 125.842 17.2312 125.596 17.4781C125.351 17.7215 125.229 18.0259 125.229 18.3912C125.229 18.7564 125.351 19.0625 125.596 19.3093ZM129.664 19.6137H131.21V20.1667H129.078V16.6157H131.154V17.1636H129.664V18.0868H131.021V18.6245H129.664V19.6137ZM134.132 16.6157H134.719V20.1667H134.132V18.6195H132.499V20.1667H131.913V16.6157H132.499V18.0665H134.132V16.6157ZM138.064 16.6157H138.488V20.1667H137.906V17.7063L136.033 20.1667H135.625V16.6157H136.212V19.0506L138.064 16.6157ZM139.989 19.6137H141.535V20.1667H139.403V16.6157H141.48V17.1636H139.989V18.0868H141.347V18.6245H139.989V19.6137Z" fill="#83CB2F"/>
<path d="M14.7533 16.9583L23.9741 7.79167L33.1949 16.9583" stroke="#83CB2F" stroke-width="5.86957" stroke-linecap="round" stroke-linejoin="round"/>
<path d="M2.30518 16.9583L13.8311 5.5L25.3571 16.9583" stroke="#F25722" stroke-width="5.86957" stroke-linecap="round" stroke-linejoin="round"/>
</g>
<defs>
<clipPath id="clip0_321_6426">
<rect width="142" height="22" fill="white"/>
</clipPath>
</defs>
</svg>
