<svg width="295" height="46" viewBox="0 0 295 46" fill="none" xmlns="http://www.w3.org/2000/svg">
<path d="M91.0822 26.0202C89.4495 26.0202 88.2692 25.0361 87.5412 23.0677L85.3282 17.458H85.0331L83.7053 25.1345C83.5478 26.0398 83.1741 26.7583 82.5839 27.2898C82.0134 27.8212 81.2561 28.0869 80.3118 28.0869C79.3676 28.0869 78.6102 27.8212 78.0397 27.2898C77.4889 26.7386 77.2136 26.0202 77.2136 25.1345C77.2136 24.7802 77.2332 24.3865 77.2726 23.9534C77.3316 23.5007 77.3906 23.1464 77.4496 22.8906L77.5086 22.4772L79.5741 10.077C79.7512 8.9944 80.2037 8.13819 80.9315 7.50834C81.6593 6.8588 82.6331 6.53403 83.8528 6.53403C85.8594 6.53403 87.3347 7.71501 88.2789 10.077L90.9347 16.9857H91.2297L93.8855 10.077C94.7904 7.71501 96.2658 6.53403 98.3116 6.53403C99.5309 6.53403 100.505 6.8588 101.233 7.50834C101.961 8.13819 102.413 8.9944 102.59 10.077L104.656 22.4772C104.852 23.4614 104.951 24.3471 104.951 25.1345C104.951 26.0202 104.666 26.7386 104.095 27.2898C103.544 27.8212 102.797 28.0869 101.853 28.0869C100.908 28.0869 100.141 27.8212 99.551 27.2898C98.9802 26.7583 98.6162 26.0398 98.4591 25.1345L97.1316 17.458H96.8366L94.6232 23.0677C93.8756 25.0361 92.6953 26.0202 91.0822 26.0202ZM114.407 18.0486H117.948L116.325 13.6199H116.03L114.407 18.0486ZM113.08 23.363L112.341 25.1345C111.516 27.1027 110.335 28.0869 108.8 28.0869C107.856 28.0869 107.079 27.8015 106.469 27.2307C105.86 26.6599 105.554 25.9611 105.554 25.1345C105.554 24.8786 105.614 24.5341 105.732 24.1011C105.85 23.6484 105.968 23.2646 106.086 22.9497L106.293 22.4772L111.014 10.077C111.486 8.89599 112.115 8.01025 112.903 7.41977C113.689 6.82927 114.781 6.53403 116.177 6.53403C117.575 6.53403 118.667 6.82927 119.453 7.41977C120.259 8.01025 120.889 8.89599 121.342 10.077L126.063 22.4772C126.555 23.6583 126.8 24.544 126.8 25.1345C126.8 25.9611 126.496 26.6599 125.885 27.2307C125.276 27.8015 124.499 28.0869 123.554 28.0869C122.02 28.0869 120.84 27.1027 120.013 25.1345L119.276 23.363H113.08ZM127.396 19.5248V15.3914C127.396 12.8326 128.301 10.7167 130.111 9.04361C131.921 7.37056 134.311 6.53403 137.281 6.53403C139.682 6.53403 141.629 7.07531 143.124 8.15788C144.639 9.24044 145.396 10.3722 145.396 11.5532C145.396 12.3798 145.121 13.0294 144.57 13.5018C144.039 13.9742 143.232 14.2104 142.151 14.2104C141.343 14.2104 140.508 13.8659 139.642 13.1771C138.797 12.4881 138.009 12.1437 137.281 12.1437C136.318 12.1437 135.53 12.4487 134.921 13.0589C134.33 13.6494 134.035 14.4269 134.035 15.3914V19.5248C134.035 20.4893 134.33 21.2766 134.921 21.8868C135.53 22.4772 136.318 22.7725 137.281 22.7725C138.127 22.7725 139.002 22.4281 139.908 21.7391C140.832 21.0503 141.679 20.7057 142.446 20.7057C143.527 20.7057 144.334 20.942 144.865 21.4143C145.416 21.8868 145.692 22.5363 145.692 23.363C145.692 24.544 144.914 25.6758 143.36 26.7583C141.826 27.8408 139.799 28.3822 137.281 28.3822C134.311 28.3822 131.921 27.5457 130.111 25.8726C128.301 24.1995 127.396 22.0836 127.396 19.5248ZM152.619 13.0294H149.374C148.351 13.0294 147.555 12.7637 146.984 12.2323C146.413 11.7009 146.128 10.9824 146.128 10.077C146.128 9.17155 146.413 8.45312 146.984 7.92168C147.555 7.39024 148.351 7.12451 149.374 7.12451H162.357C163.38 7.12451 164.177 7.39024 164.748 7.92168C165.318 8.45312 165.603 9.17155 165.603 10.077C165.603 10.9824 165.318 11.7009 164.748 12.2323C164.177 12.7637 163.38 13.0294 162.357 13.0294H159.111V25.1345C159.111 26.0398 158.826 26.7583 158.256 27.2898C157.685 27.8212 156.888 28.0869 155.865 28.0869C154.842 28.0869 154.046 27.8212 153.476 27.2898C152.905 26.7583 152.619 26.0398 152.619 25.1345V13.0294ZM181.984 13.0294H174.017V14.8009H179.624C180.489 14.8009 181.198 15.0568 181.749 15.5685C182.299 16.0803 182.575 16.7102 182.575 17.458C182.575 18.206 182.299 18.8359 181.749 19.3477C181.198 19.8594 180.489 20.1153 179.624 20.1153H174.017V21.8868H182.279C183.302 21.8868 184.099 22.1524 184.67 22.6839C185.241 23.2153 185.525 23.9338 185.525 24.8392C185.525 25.7447 185.241 26.463 184.67 26.9945C184.099 27.5259 183.302 27.7917 182.279 27.7917H170.771C169.749 27.7917 168.952 27.5259 168.382 26.9945C167.811 26.463 167.526 25.7447 167.526 24.8392V10.077C167.526 9.17155 167.811 8.45312 168.382 7.92168C168.952 7.39024 169.749 7.12451 170.771 7.12451H181.984C183.007 7.12451 183.804 7.39024 184.375 7.92168C184.945 8.45312 185.23 9.17155 185.23 10.077C185.23 10.9824 184.945 11.7009 184.375 12.2323C183.804 12.7637 183.007 13.0294 181.984 13.0294ZM194.218 16.2771H196.873C197.582 16.2771 198.152 16.0901 198.585 15.7162C199.018 15.3421 199.234 14.8894 199.234 14.358C199.234 13.8265 199.018 13.3738 198.585 12.9999C198.152 12.6259 197.582 12.439 196.873 12.439H194.218V16.2771ZM196.873 21.5915H194.218V25.1345C194.218 26.0398 193.933 26.7583 193.362 27.2898C192.791 27.8212 191.995 28.0869 190.972 28.0869C189.949 28.0869 189.152 27.8212 188.582 27.2898C188.012 26.7583 187.726 26.0398 187.726 25.1345V10.077C187.726 9.17155 188.012 8.45312 188.582 7.92168C189.152 7.39024 189.949 7.12451 190.972 7.12451H196.873C199.726 7.12451 201.959 7.81342 203.572 9.19124C205.204 10.5493 206.021 12.2716 206.021 14.358C206.021 16.4444 205.204 18.1765 203.572 19.5543C201.959 20.9125 199.726 21.5915 196.873 21.5915Z" fill="#F25722"/>
<path d="M216.211 22.4772L220.638 17.1629L216.802 12.439C216.015 11.4548 215.621 10.5691 215.621 9.7817C215.621 8.89599 215.897 8.1874 216.448 7.65596C217.018 7.10484 217.775 6.82927 218.72 6.82927C219.251 6.82927 219.763 6.95722 220.254 7.21309C220.746 7.44928 221.1 7.69533 221.316 7.9512L221.67 8.3055L224.621 12.1437H224.916L227.867 8.3055C227.946 8.1874 228.064 8.04962 228.221 7.89216C228.398 7.73469 228.743 7.51818 229.254 7.24262C229.766 6.96705 230.287 6.82927 230.817 6.82927C231.762 6.82927 232.51 7.10484 233.061 7.65596C233.631 8.1874 233.916 8.89599 233.916 9.7817C233.916 10.136 233.818 10.5396 233.621 10.9923C233.425 11.4252 233.227 11.7697 233.031 12.0255L232.736 12.439L228.9 17.1629L233.326 22.4772C234.113 23.4614 234.507 24.3471 234.507 25.1345C234.507 26.0202 234.221 26.7386 233.651 27.2898C233.1 27.8212 232.353 28.0869 231.408 28.0869C230.877 28.0869 230.365 27.9688 229.874 27.7326C229.382 27.4768 229.027 27.2209 228.812 26.965L228.457 26.6107L224.916 22.3296H224.621L221.08 26.6107C221.002 26.7288 220.874 26.8666 220.696 27.024C220.539 27.1815 220.205 27.398 219.694 27.6736C219.182 27.9491 218.661 28.0869 218.13 28.0869C217.185 28.0869 216.428 27.8212 215.858 27.2898C215.307 26.7386 215.031 26.0202 215.031 25.1345C215.031 24.7802 215.13 24.3865 215.326 23.9534C215.523 23.5007 215.72 23.1464 215.916 22.8906L216.211 22.4772ZM243.504 18.0486H247.045L245.422 13.6199H245.127L243.504 18.0486ZM242.176 23.363L241.438 25.1345C240.612 27.1027 239.432 28.0869 237.897 28.0869C236.953 28.0869 236.176 27.8015 235.566 27.2307C234.957 26.6599 234.651 25.9611 234.651 25.1345C234.651 24.8786 234.711 24.5341 234.829 24.1011C234.946 23.6484 235.064 23.2646 235.183 22.9497L235.389 22.4772L240.111 10.077C240.583 8.89599 241.212 8.01025 241.999 7.41977C242.786 6.82927 243.878 6.53403 245.274 6.53403C246.671 6.53403 247.763 6.82927 248.55 7.41977C249.356 8.01025 249.986 8.89599 250.439 10.077L255.16 22.4772C255.651 23.6583 255.897 24.544 255.897 25.1345C255.897 25.9611 255.593 26.6599 254.982 27.2307C254.372 27.8015 253.596 28.0869 252.651 28.0869C251.117 28.0869 249.937 27.1027 249.11 25.1345L248.373 23.363H242.176ZM262.38 22.182L256.627 12.439C256.135 11.6516 255.89 10.7659 255.89 9.7817C255.89 8.95504 256.194 8.25629 256.804 7.68548C257.413 7.11468 258.191 6.82927 259.135 6.82927C260.512 6.82927 261.693 7.81342 262.675 9.7817L265.921 15.9818H266.216L268.725 9.7817C269.61 7.81342 270.791 6.82927 272.266 6.82927C273.21 6.82927 273.987 7.11468 274.597 7.68548C275.207 8.25629 275.512 8.95504 275.512 9.7817C275.512 10.2148 275.443 10.6576 275.305 11.1103C275.187 11.5433 275.069 11.8681 274.951 12.0847L274.774 12.439L270.053 22.182C269.207 23.9732 268.047 25.4593 266.571 26.6402C265.115 27.8015 263.424 28.3822 261.495 28.3822C260 28.3822 258.84 28.0475 258.014 27.3783C257.187 26.6894 256.775 25.8431 256.775 24.8392C256.775 24.0913 257.03 23.4614 257.542 22.9497C258.053 22.4379 258.682 22.182 259.43 22.182C259.862 22.182 260.276 22.2804 260.67 22.4772C261.063 22.6741 261.338 22.7725 261.495 22.7725C261.673 22.7725 261.83 22.7233 261.968 22.6249C262.125 22.5265 262.233 22.4281 262.292 22.3296L262.38 22.182ZM276.117 19.5248V15.3914C276.117 12.8326 277.022 10.7167 278.832 9.04361C280.642 7.37056 283.031 6.53403 286.002 6.53403C288.402 6.53403 290.35 7.07531 291.845 8.15788C293.359 9.24044 294.117 10.3722 294.117 11.5532C294.117 12.3798 293.841 13.0294 293.29 13.5018C292.76 13.9742 291.953 14.2104 290.871 14.2104C290.064 14.2104 289.228 13.8659 288.363 13.1771C287.517 12.4881 286.73 12.1437 286.002 12.1437C285.038 12.1437 284.252 12.4487 283.642 13.0589C283.052 13.6494 282.757 14.4269 282.757 15.3914V19.5248C282.757 20.4893 283.052 21.2766 283.642 21.8868C284.252 22.4772 285.038 22.7725 286.002 22.7725C286.848 22.7725 287.724 22.4281 288.629 21.7391C289.553 21.0503 290.399 20.7057 291.166 20.7057C292.248 20.7057 293.055 20.942 293.585 21.4143C294.136 21.8868 294.412 22.5363 294.412 23.363C294.412 24.544 293.635 25.6758 292.081 26.7583C290.546 27.8408 288.521 28.3822 286.002 28.3822C283.031 28.3822 280.642 27.5457 278.832 25.8726C277.022 24.1995 276.117 22.0836 276.117 19.5248Z" fill="#83CB2F"/>
<path d="M77.5668 34.7419H83.1322V42.1667H81.9025V35.8768H78.7859V42.1667H77.5668V34.7419ZM87.7661 34.7419C88.2396 34.7419 88.6672 34.848 89.0488 35.0601C89.4376 35.2722 89.7414 35.5657 89.9605 35.9405C90.1796 36.3153 90.2891 36.7324 90.2891 37.1921C90.2891 37.8921 90.0488 38.4755 89.5683 38.9422C89.0877 39.4089 88.4869 39.6422 87.7661 39.6422H86.2396V42.1667H85.0205V34.7419H87.7661ZM87.7025 38.4861C87.9004 38.4861 88.0806 38.4543 88.2432 38.3906C88.4128 38.327 88.5576 38.2387 88.6778 38.1255C88.7979 38.0123 88.8898 37.8745 88.9534 37.7119C89.0241 37.5491 89.0594 37.376 89.0594 37.1921C89.0594 36.9446 88.9994 36.7253 88.8792 36.5344C88.7661 36.3365 88.6071 36.1809 88.4022 36.0677C88.1972 35.9547 87.964 35.898 87.7025 35.898H86.2396V38.4861H87.7025ZM94.9771 42.3046C93.8535 42.3046 92.9206 41.9404 92.1786 41.2121C91.4365 40.4766 91.0654 39.5574 91.0654 38.4543C91.0654 37.3511 91.4365 36.4355 92.1786 35.7071C92.9206 34.9717 93.8535 34.604 94.9771 34.604C96.101 34.604 97.0339 34.9717 97.7762 35.7071C98.5175 36.4355 98.8891 37.3511 98.8891 38.4543C98.8891 39.1755 98.7196 39.8331 98.3796 40.4272C98.0482 41.0141 97.5818 41.4737 96.9803 41.806C96.3874 42.1384 95.7192 42.3046 94.9771 42.3046ZM93.069 40.3741C93.5778 40.8833 94.2139 41.1378 94.9771 41.1378C95.7475 41.1378 96.3836 40.8833 96.8854 40.3741C97.394 39.8579 97.6488 39.218 97.6488 38.4543C97.6488 37.6906 97.394 37.0542 96.8854 36.5451C96.3836 36.0288 95.7475 35.7708 94.9771 35.7708C94.2139 35.7708 93.5778 36.0288 93.069 36.5451C92.5601 37.0542 92.3058 37.6906 92.3058 38.4543C92.3058 39.218 92.5601 39.8579 93.069 40.3741ZM108.219 38.4436C108.219 38.9316 108.139 39.3983 107.976 39.8438C107.821 40.2893 107.591 40.6888 107.286 41.0424C106.99 41.3959 106.612 41.6859 106.152 41.9121C105.693 42.1313 105.184 42.2586 104.625 42.2939V43.4289H103.439V42.2939C102.88 42.2586 102.372 42.1313 101.912 41.9121C101.452 41.6859 101.071 41.3994 100.767 41.053C100.47 40.6994 100.241 40.2998 100.078 39.8544C99.9159 39.4089 99.8345 38.9457 99.8345 38.4649C99.8345 38.076 99.8833 37.7012 99.9829 37.3406C100.082 36.9729 100.234 36.6334 100.439 36.3224C100.644 36.0041 100.887 35.7248 101.17 35.4844C101.46 35.2369 101.795 35.0389 102.177 34.8904C102.565 34.7348 102.987 34.6429 103.439 34.6146V33.6176H104.625V34.6146C105.184 34.65 105.693 34.7772 106.152 34.9965C106.612 35.2157 106.99 35.502 107.286 35.8557C107.591 36.2021 107.821 36.5981 107.976 37.0436C108.139 37.489 108.219 37.9558 108.219 38.4436ZM104.615 41.1378C105.336 41.0742 105.912 40.7878 106.343 40.2787C106.774 39.7625 106.99 39.1543 106.99 38.4543C106.99 37.7613 106.774 37.1602 106.343 36.6512C105.912 36.1349 105.336 35.845 104.615 35.7814V41.1378ZM101.075 38.4543C101.075 39.1472 101.286 39.7519 101.711 40.268C102.142 40.7843 102.717 41.0742 103.439 41.1378V35.7814C102.725 35.845 102.152 36.1349 101.721 36.6512C101.29 37.1602 101.075 37.7613 101.075 38.4543ZM110.868 41.0105H114.08V42.1667H109.649V34.7419H113.963V35.8875H110.868V37.8178H113.688V38.9422H110.868V41.0105ZM118.755 42.2939C117.659 42.2939 116.747 41.9333 116.019 41.2121C115.298 40.4837 114.938 39.5645 114.938 38.4543C114.938 37.3441 115.298 36.4284 116.019 35.7071C116.747 34.9788 117.659 34.6146 118.755 34.6146C119.334 34.6146 119.871 34.7278 120.366 34.9541C120.86 35.1803 121.274 35.502 121.606 35.9193C121.945 36.3365 122.178 36.8208 122.305 37.3724H121.075C120.899 36.8774 120.606 36.492 120.196 36.2163C119.786 35.9334 119.305 35.792 118.755 35.792C118.012 35.792 117.398 36.043 116.91 36.5451C116.422 37.0472 116.178 37.687 116.178 38.4649C116.178 39.2357 116.422 39.872 116.91 40.3741C117.398 40.8691 118.012 41.1166 118.755 41.1166C119.32 41.1166 119.811 40.9681 120.228 40.6711C120.644 40.367 120.935 39.9534 121.097 39.4301H122.338C122.146 40.2998 121.726 40.9964 121.075 41.5197C120.426 42.0359 119.652 42.2939 118.755 42.2939ZM126.964 42.2939C125.868 42.2939 124.956 41.9333 124.228 41.2121C123.508 40.4837 123.147 39.5645 123.147 38.4543C123.147 37.3441 123.508 36.4284 124.228 35.7071C124.956 34.9788 125.868 34.6146 126.964 34.6146C127.543 34.6146 128.081 34.7278 128.575 34.9541C129.07 35.1803 129.483 35.502 129.815 35.9193C130.154 36.3365 130.388 36.8208 130.514 37.3724H129.286C129.108 36.8774 128.815 36.492 128.405 36.2163C127.995 35.9334 127.515 35.792 126.964 35.792C126.222 35.792 125.607 36.043 125.119 36.5451C124.632 37.0472 124.387 37.687 124.387 38.4649C124.387 39.2357 124.632 39.872 125.119 40.3741C125.607 40.8691 126.222 41.1166 126.964 41.1166C127.529 41.1166 128.02 40.9681 128.437 40.6711C128.855 40.367 129.144 39.9534 129.307 39.4301H130.547C130.355 40.2998 129.935 40.9964 129.286 41.5197C128.635 42.0359 127.861 42.2939 126.964 42.2939ZM136.901 34.7419H137.781V42.1667H136.573V37.0223L132.682 42.1667H131.833V34.7419H133.053V39.8331L136.901 34.7419ZM143.115 42.3046C141.992 42.3046 141.059 41.9404 140.317 41.2121C139.575 40.4766 139.204 39.5574 139.204 38.4543C139.204 37.3511 139.575 36.4355 140.317 35.7071C141.059 34.9717 141.992 34.604 143.115 34.604C144.24 34.604 145.173 34.9717 145.914 35.7071C146.656 36.4355 147.027 37.3511 147.027 38.4543C147.027 39.1755 146.857 39.8331 146.518 40.4272C146.186 41.0141 145.719 41.4737 145.119 41.806C144.525 42.1384 143.857 42.3046 143.115 42.3046ZM141.207 40.3741C141.716 40.8833 142.353 41.1378 143.115 41.1378C143.886 41.1378 144.522 40.8833 145.024 40.3741C145.533 39.8579 145.787 39.218 145.787 38.4543C145.787 37.6906 145.533 37.0542 145.024 36.5451C144.522 36.0288 143.886 35.7708 143.115 35.7708C142.353 35.7708 141.716 36.0288 141.207 36.5451C140.699 37.0542 140.444 37.6906 140.444 38.4543C140.444 39.218 140.699 39.8579 141.207 40.3741ZM153.05 34.7419H154.27V42.1667H153.05V38.9316H149.658V42.1667H148.439V34.7419H149.658V37.7755H153.05V34.7419ZM161.229 42.1667L160.582 40.5545H157.275L156.639 42.1667H155.346L158.335 34.7419H159.48L162.544 42.1667H161.229ZM158.919 36.3329L157.7 39.462H160.158L158.919 36.3329ZM164.919 34.7419H169.658V42.1667H168.438V35.8768H166.011L165.661 39.6635C165.499 41.3393 164.7 42.1773 163.265 42.1773H162.916V40.9787H163.265C163.958 40.9787 164.343 40.5545 164.42 39.7059L164.919 34.7419ZM174.333 37.2133C175.082 37.2133 175.697 37.4467 176.178 37.9133C176.659 38.38 176.898 38.974 176.898 39.6953C176.898 40.4095 176.659 40.9999 176.178 41.4666C175.697 41.9333 175.082 42.1667 174.333 42.1667H171.545V34.7419H172.765V37.2133H174.333ZM174.248 41.0212C174.658 41.0212 174.994 40.8974 175.256 40.6499C175.524 40.3954 175.658 40.0736 175.658 39.6847C175.658 39.2958 175.524 38.9775 175.256 38.7301C174.994 38.4755 174.658 38.3482 174.248 38.3482H172.765V41.0212H174.248ZM182.772 34.7419H183.991V42.1667H182.772V38.9316H179.38V42.1667H178.161V34.7419H179.38V37.7755H182.772V34.7419ZM189.308 42.3046C188.184 42.3046 187.251 41.9404 186.509 41.2121C185.767 40.4766 185.396 39.5574 185.396 38.4543C185.396 37.3511 185.767 36.4355 186.509 35.7071C187.251 34.9717 188.184 34.604 189.308 34.604C190.431 34.604 191.364 34.9717 192.106 35.7071C192.849 36.4355 193.219 37.3511 193.219 38.4543C193.219 39.1755 193.05 39.8331 192.711 40.4272C192.378 41.0141 191.912 41.4737 191.311 41.806C190.717 42.1384 190.05 42.3046 189.308 42.3046ZM187.4 40.3741C187.908 40.8833 188.544 41.1378 189.308 41.1378C190.078 41.1378 190.715 40.8833 191.216 40.3741C191.725 39.8579 191.979 39.218 191.979 38.4543C191.979 37.6906 191.725 37.0542 191.216 36.5451C190.715 36.0288 190.078 35.7708 189.308 35.7708C188.544 35.7708 187.908 36.0288 187.4 36.5451C186.891 37.0542 186.636 37.6906 186.636 38.4543C186.636 39.218 186.891 39.8579 187.4 40.3741ZM195.85 41.0105H199.063V42.1667H194.631V34.7419H198.946V35.8875H195.85V37.8178H198.67V38.9422H195.85V41.0105ZM209.097 41.0317H209.839V43.6092H208.715V42.1667H203.638V43.6092H202.515V41.0317H203.097C203.189 40.9681 203.266 40.9009 203.331 40.8302C203.394 40.7595 203.458 40.6605 203.521 40.5332C203.584 40.4059 203.638 40.2716 203.68 40.1302C203.722 39.9888 203.765 39.7943 203.808 39.5468C203.856 39.2922 203.9 39.0342 203.935 38.7725C203.97 38.5038 204.009 38.1537 204.051 37.7224C204.101 37.284 204.143 36.8456 204.178 36.4072C204.22 35.9617 204.27 35.4066 204.327 34.7419H209.097V41.0317ZM205.419 35.8768C205.291 37.6022 205.161 38.822 205.027 39.5361C204.892 40.2433 204.687 40.7418 204.412 41.0317H207.868V35.8768H205.419ZM214.578 42.3046C213.454 42.3046 212.522 41.9404 211.779 41.2121C211.037 40.4766 210.666 39.5574 210.666 38.4543C210.666 37.3511 211.037 36.4355 211.779 35.7071C212.522 34.9717 213.454 34.604 214.578 34.604C215.701 34.604 216.634 34.9717 217.377 35.7071C218.119 36.4355 218.49 37.3511 218.49 38.4543C218.49 39.1755 218.32 39.8331 217.981 40.4272C217.649 41.0141 217.182 41.4737 216.582 41.806C215.988 42.1384 215.32 42.3046 214.578 42.3046ZM212.67 40.3741C213.179 40.8833 213.815 41.1378 214.578 41.1378C215.348 41.1378 215.984 40.8833 216.486 40.3741C216.994 39.8579 217.249 39.218 217.249 38.4543C217.249 37.6906 216.994 37.0542 216.486 36.5451C215.984 36.0288 215.348 35.7708 214.578 35.7708C213.815 35.7708 213.179 36.0288 212.67 36.5451C212.161 37.0542 211.907 37.6906 211.907 38.4543C211.907 39.218 212.161 39.8579 212.67 40.3741ZM228.681 42.1667H227.44L226.57 36.789L224.165 42.05H223.857L221.44 36.789L220.571 42.1667H219.331L220.539 34.7419H221.737L224.006 39.7908L226.274 34.7419H227.482L228.681 42.1667ZM233.429 42.3046C232.306 42.3046 231.373 41.9404 230.631 41.2121C229.889 40.4766 229.518 39.5574 229.518 38.4543C229.518 37.3511 229.889 36.4355 230.631 35.7071C231.373 34.9717 232.306 34.604 233.429 34.604C234.553 34.604 235.486 34.9717 236.228 35.7071C236.97 36.4355 237.341 37.3511 237.341 38.4543C237.341 39.1755 237.171 39.8331 236.832 40.4272C236.5 41.0141 236.033 41.4737 235.433 41.806C234.839 42.1384 234.172 42.3046 233.429 42.3046ZM231.521 40.3741C232.03 40.8833 232.666 41.1378 233.429 41.1378C234.2 41.1378 234.836 40.8833 235.337 40.3741C235.847 39.8579 236.101 39.218 236.101 38.4543C236.101 37.6906 235.847 37.0542 235.337 36.5451C234.836 36.0288 234.2 35.7708 233.429 35.7708C232.666 35.7708 232.03 36.0288 231.521 36.5451C231.013 37.0542 230.758 37.6906 230.758 38.4543C230.758 39.218 231.013 39.8579 231.521 40.3741ZM242.092 42.2939C240.997 42.2939 240.085 41.9333 239.357 41.2121C238.637 40.4837 238.276 39.5645 238.276 38.4543C238.276 37.3441 238.637 36.4284 239.357 35.7071C240.085 34.9788 240.997 34.6146 242.092 34.6146C242.672 34.6146 243.208 34.7278 243.703 34.9541C244.199 35.1803 244.611 35.502 244.944 35.9193C245.283 36.3365 245.517 36.8208 245.643 37.3724H244.414C244.237 36.8774 243.944 36.492 243.534 36.2163C243.124 35.9334 242.643 35.792 242.092 35.792C241.35 35.792 240.735 36.043 240.248 36.5451C239.76 37.0472 239.516 37.687 239.516 38.4649C239.516 39.2357 239.76 39.872 240.248 40.3741C240.735 40.8691 241.35 41.1166 242.092 41.1166C242.658 41.1166 243.149 40.9681 243.566 40.6711C243.982 40.367 244.272 39.9534 244.435 39.4301H245.676C245.484 40.2998 245.064 40.9964 244.414 41.5197C243.764 42.0359 242.99 42.2939 242.092 42.2939ZM251.704 34.7419V35.8768H249.52V42.1667H248.311V35.8768H246.128V34.7419H251.704ZM255.619 34.7419C256.093 34.7419 256.521 34.848 256.902 35.0601C257.291 35.2722 257.594 35.5657 257.814 35.9405C258.033 36.3153 258.142 36.7324 258.142 37.1921C258.142 37.8921 257.902 38.4755 257.421 38.9422C256.941 39.4089 256.34 39.6422 255.619 39.6422H254.093V42.1667H252.873V34.7419H255.619ZM255.555 38.4861C255.753 38.4861 255.934 38.4543 256.096 38.3906C256.266 38.327 256.411 38.2387 256.531 38.1255C256.651 38.0123 256.743 37.8745 256.806 37.7119C256.877 37.5491 256.912 37.376 256.912 37.1921C256.912 36.9446 256.852 36.7253 256.732 36.5344C256.619 36.3365 256.46 36.1809 256.255 36.0677C256.05 35.9547 255.817 35.898 255.555 35.898H254.093V38.4861H255.555ZM262.831 42.3046C261.706 42.3046 260.773 41.9404 260.032 41.2121C259.29 40.4766 258.918 39.5574 258.918 38.4543C258.918 37.3511 259.29 36.4355 260.032 35.7071C260.773 34.9717 261.706 34.604 262.831 34.604C263.954 34.604 264.887 34.9717 265.628 35.7071C266.371 36.4355 266.742 37.3511 266.742 38.4543C266.742 39.1755 266.573 39.8331 266.233 40.4272C265.901 41.0141 265.435 41.4737 264.833 41.806C264.24 42.1384 263.572 42.3046 262.831 42.3046ZM260.922 40.3741C261.431 40.8833 262.067 41.1378 262.831 41.1378C263.601 41.1378 264.237 40.8833 264.739 40.3741C265.247 39.8579 265.502 39.218 265.502 38.4543C265.502 37.6906 265.247 37.0542 264.739 36.5451C264.237 36.0288 263.601 35.7708 262.831 35.7708C262.067 35.7708 261.431 36.0288 260.922 36.5451C260.413 37.0542 260.158 37.6906 260.158 38.4543C260.158 39.218 260.413 39.8579 260.922 40.3741ZM269.372 41.0105H272.585V42.1667H268.154V34.7419H272.468V35.8875H269.372V37.8178H272.192V38.9422H269.372V41.0105ZM278.655 34.7419H279.875V42.1667H278.655V38.9316H275.263V42.1667H274.044V34.7419H275.263V37.7755H278.655V34.7419ZM286.823 34.7419H287.703V42.1667H286.495V37.0223L282.604 42.1667H281.757V34.7419H282.976V39.8331L286.823 34.7419ZM290.823 41.0105H294.035V42.1667H289.604V34.7419H293.919V35.8875H290.823V37.8178H293.643V38.9422H290.823V41.0105Z" fill="#83CB2F"/>
<path d="M30.6494 35.4583L49.8052 16.2917L68.961 35.4583" stroke="#83CB2F" stroke-width="9" stroke-linecap="round" stroke-linejoin="round"/>
<path d="M4.78894 35.4583L28.7337 11.5L52.6786 35.4583" stroke="#F25722" stroke-width="9" stroke-linecap="round" stroke-linejoin="round"/>
</svg>
